<?xml version="1.0" encoding="utf-8"?>
<!-- Generator: Adobe Illustrator 19.0.0, SVG Export Plug-In . SVG Version: 6.00 Build 0)  -->
<svg version="1.1" id="Layer_1" xmlns="http://www.w3.org/2000/svg" xmlns:xlink="http://www.w3.org/1999/xlink" x="0px" y="0px"
	 width="548.876px" height="233.943px" viewBox="0 0 548.876 233.943" style="enable-background:new 0 0 548.876 233.943;"
	 xml:space="preserve">
<style type="text/css">
	.st0{fill:none;stroke:#B83B25;stroke-width:7.5;stroke-linecap:round;stroke-miterlimit:10;}
	.st1{fill:#B83B25;}
</style>
<g>
	<g id="XMLID_27_">
		<polyline id="XMLID_30_" class="st0" points="311.772,64.563 339.435,64.563 339.435,12.715 361.022,12.715 		"/>
		<g id="XMLID_28_">
			<polygon id="XMLID_29_" class="st1" points="346.083,25.43 358.805,12.715 346.083,0 356.879,0 369.594,12.715 356.879,25.43 			
				"/>
		</g>
	</g>
</g>
<g id="XMLID_1_">
	<g id="XMLID_64_">
		<g id="XMLID_95_">
			<line id="XMLID_98_" class="st0" x1="3.902" y1="70.743" x2="158.389" y2="70.743"/>
			<g id="XMLID_96_">
				<polygon id="XMLID_97_" class="st1" points="143.451,83.457 156.173,70.743 143.451,58.028 154.247,58.028 166.962,70.743 
					154.247,83.457 				"/>
			</g>
		</g>
	</g>
</g>
<g>
	<g id="XMLID_10_">
		<polyline id="XMLID_20_" class="st0" points="311.772,84.265 342.309,84.265 342.309,221.229 362.24,221.229 		"/>
		<g id="XMLID_18_">
			<polygon id="XMLID_19_" class="st1" points="347.301,233.943 360.024,221.229 347.301,208.514 358.098,208.514 370.812,221.229 
				358.098,233.943 			"/>
		</g>
	</g>
</g>
<g>
	<g id="XMLID_12_">
		<polyline id="XMLID_17_" class="st0" points="517.079,27.826 545.126,27.826 545.126,212.902 514.897,212.902 		"/>
		<g id="XMLID_15_">
			<polygon id="XMLID_16_" class="st1" points="532.018,40.541 519.295,27.826 532.018,15.111 521.221,15.111 508.507,27.826 
				521.221,40.541 			"/>
		</g>
		<g id="XMLID_13_">
			<polygon id="XMLID_14_" class="st1" points="529.836,200.187 517.114,212.902 529.836,225.617 519.04,225.617 506.325,212.902 
				519.04,200.187 			"/>
		</g>
	</g>
</g>
</svg>
