<?xml version="1.0" encoding="utf-8"?>
<svg version="1.1" xmlns="http://www.w3.org/2000/svg" xmlns:xlink="http://www.w3.org/1999/xlink" x="0px" y="0px"
	 width="481.368px" height="177.494px" viewBox="0 0 481.368 177.494" style="enable-background:new 0 0 481.368 177.494;"
	 xml:space="preserve">
<style type="text/css">
	.lineaNaranja{
		fill:none;
		stroke:transparent;
		stroke-width:1.75;
		stroke-linecap:round;
		stroke-miterlimit:10;
	}
	.lineaNaranja{
		stroke-dasharray:1000;
		stroke-dashoffset:0;
		-webkit-animation: lineaNaranja 2s ease-in-out forwards 1.5s;
		-moz-animation: lineaNaranja 2s ease-in-out forwards 1.5s;
		-o-animation: lineaNaranja 2s ease-in-out forwards 1.5s;
		animation: lineaNaranja 2s ease-in-out forwards 1.5s;
	}

	@-webkit-keyframes lineaNaranja{
		from{
			stroke-dashoffset: 1000;
			stroke:#F05724;
		}

		to{
			stroke-dashoffset: 0;
			stroke:#F05724;
		}
	}

	.lineaGris{
		fill:none;
		stroke:transparent;
		stroke-width:1.75;
		stroke-linecap:round;
		stroke-miterlimit:10;
	}
	.lineaGris{
		stroke-dasharray:1000;
		stroke-dashoffset:0;
		-webkit-animation: lineaGris 4s ease-in-out forwards 2.5s;
		-moz-animation: lineaGris 4s ease-in-out forwards 2.5s;
		-o-animation: lineaGris 4s ease-in-out forwards 2.5s;
		animation: lineaGris 4s ease-in-out forwards 2.5s;
	}

	@-webkit-keyframes lineaGris{
		from{
			stroke-dashoffset: 1000;
			stroke:#666666;
		}

		to{
			stroke-dashoffset: 0;
			stroke:#666666;
		}
	}

	.st2{
		fill:#666666;
	}

	.st2{
		fill:transparent;
		-webkit-animation: st2 1s ease-in-out forwards 2.5s;
		-moz-animation: st2 1s ease-in-out forwards 2.5s;
		-o-animation: st2 1s ease-in-out forwards 2.5s
		animation: st2 1s ease-in-out forwards 2.5s;

	}

		@-webkit-keyframes st2 {
			from{fill:transparent}
			to{fill:#666666}
	}

		@keyframes st2 {
			from{fill:transparent}
			to{fill:#666666}
	}

	.st3{
		fill:#E8500E;
	}

	.st3{
		fill:transparent;
		-webkit-animation: st3 1s ease-in-out forwards 1.5s;
		-moz-animation: st3 1s ease-in-out forwards 1.5s;
		-o-animation: st3 1s ease-in-out forwards 1.5s
		animation: st3 1s ease-in-out forwards 1.5s;

	}

		@-webkit-keyframes st3 {
			from{fill:transparent}
			to{fill:#E8500E}
	}

		@keyframes st3 {
			from{fill:transparent}
			to{fill:#E8500E}
	}
</style>
<g id="lineaNaranjaDer">
	<polyline id="XMLID_106_" class="lineaNaranja" points="296.937,75.462 298.729,75.462 305.244,75.462 305.244,76.765 306.547,76.765 
		306.547,78.069 312.086,78.069 312.086,79.697 313.389,79.697 313.389,81.163 314.855,81.163 314.855,88.005 316.321,88.005 
		316.321,92.404 317.624,92.404 317.624,94.683 323.326,94.683 323.326,96.964 324.303,96.964 324.303,98.593 325.931,98.593 
		325.931,100.873 327.072,100.873 327.072,105.108 330.167,105.108 330.167,107.227 336.194,107.227 336.194,108.693 
		339.778,108.693 339.778,109.995 344.99,109.995 344.99,111.95 346.131,111.95 346.131,114.393 348.248,114.393 348.248,118.954 
		349.714,118.954 349.714,120.909 356.88,120.909 356.88,123.027 358.835,123.027 358.835,125.145 363.559,125.145 363.559,126.936 
		366.491,126.936 366.491,129.379 368.284,129.379 368.284,133.777 369.097,133.777 369.097,135.406 378.22,135.406 378.22,140.294 
		381.804,140.294 381.804,142.411 386.691,142.411 386.691,147.461 399.722,147.461 399.722,154.954 409.659,154.954 
		409.659,158.049 420.57,158.049 420.57,164.239 422.038,164.239 422.038,169.451 428.554,169.451 428.554,172.545 450.707,172.545 
		450.707,176.619 	"/>
</g>
<g id="lineaGrisDer">
	<polyline id="XMLID_107_" class="lineaGris" points="295.47,74.974 298.402,74.974 298.402,76.766 303.452,76.766 304.756,76.766 
		304.756,83.444 306.222,83.444 306.222,85.887 314.854,85.887 314.854,87.842 317.623,87.842 317.623,89.96 324.14,89.96 
		324.14,92.567 326.094,92.567 326.094,97.616 326.094,99.733 334.728,99.733 334.728,105.272 334.728,107.878 336.845,107.878 
		336.845,114.556 338.636,114.556 338.636,118.466 339.94,118.466 339.94,120.42 344.338,120.42 344.338,123.515 346.619,123.515 
		346.619,127.751 350.04,127.751 350.04,130.683 353.46,130.683 353.46,133.452 355.903,133.452 355.903,136.221 357.37,136.221 
		357.37,143.877 358.346,143.877 358.346,148.764 359.814,148.764 359.814,153.487 361.278,153.487 367.632,153.487 
		367.632,157.723 369.261,157.723 369.261,160.167 376.755,160.167 376.755,163.424 381.966,163.424 381.966,167.822 
		390.599,167.822 390.599,172.383 407.214,172.383 407.214,176.456 	"/>
</g>
<g id="txtGrisDer">
	<g id="XMLID_45_">
		<g id="XMLID_274_">
			<path id="XMLID_275_" class="st2" d="M319.659,22.537c-0.285,0.143-0.927,0.296-1.763,0.296c-2.375,0-3.599-1.478-3.599-3.435
				c0-2.344,1.672-3.649,3.751-3.649c0.806,0,1.417,0.163,1.692,0.306l-0.316,1.233c-0.315-0.133-0.754-0.255-1.305-0.255
				c-1.233,0-2.191,0.744-2.191,2.273c0,1.376,0.815,2.243,2.202,2.243c0.469,0,0.988-0.102,1.294-0.225L319.659,22.537z"/>
			<path id="XMLID_277_" class="st2" d="M322.282,20.967l-0.489,1.763h-1.611l2.101-6.87h2.038l2.131,6.87h-1.672l-0.53-1.763
				H322.282z M324.024,19.805l-0.428-1.458c-0.122-0.408-0.245-0.917-0.347-1.325h-0.021c-0.102,0.408-0.204,0.928-0.315,1.325
				l-0.408,1.458H324.024z"/>
			<path id="XMLID_280_" class="st2" d="M327.371,15.952c0.499-0.082,1.243-0.143,2.069-0.143c1.019,0,1.732,0.153,2.222,0.54
				c0.408,0.326,0.632,0.805,0.632,1.438c0,0.876-0.621,1.478-1.213,1.692v0.03c0.479,0.194,0.744,0.652,0.918,1.285
				c0.214,0.774,0.428,1.671,0.561,1.937h-1.591c-0.112-0.194-0.274-0.754-0.479-1.6c-0.184-0.856-0.479-1.091-1.111-1.101h-0.469
				v2.701h-1.539V15.952z M328.91,18.908h0.611c0.774,0,1.233-0.387,1.233-0.989c0-0.632-0.428-0.948-1.142-0.958
				c-0.377,0-0.591,0.03-0.703,0.051V18.908z"/>
			<path id="XMLID_283_" class="st2" d="M333.418,15.952c0.407-0.082,1.233-0.143,2.008-0.143c0.948,0,1.529,0.092,2.028,0.387
				c0.479,0.255,0.826,0.724,0.826,1.346c0,0.611-0.357,1.182-1.132,1.468v0.02c0.785,0.214,1.366,0.805,1.366,1.692
				c0,0.622-0.286,1.111-0.714,1.458c-0.499,0.397-1.335,0.622-2.701,0.622c-0.765,0-1.335-0.051-1.682-0.102V15.952z
				 M334.957,18.582h0.51c0.815,0,1.254-0.336,1.254-0.846c0-0.52-0.397-0.795-1.102-0.795c-0.336,0-0.529,0.021-0.662,0.041V18.582
				z M334.957,21.629c0.153,0.021,0.336,0.021,0.602,0.021c0.703,0,1.325-0.265,1.325-0.989c0-0.693-0.622-0.968-1.396-0.968h-0.53
				V21.629z"/>
			<path id="XMLID_287_" class="st2" d="M345.867,19.224c0,2.252-1.366,3.619-3.374,3.619c-2.038,0-3.231-1.54-3.231-3.497
				c0-2.059,1.315-3.598,3.344-3.598C344.714,15.749,345.867,17.328,345.867,19.224z M340.903,19.316
				c0,1.345,0.632,2.293,1.671,2.293c1.051,0,1.651-0.999,1.651-2.334c0-1.233-0.591-2.293-1.661-2.293
				C341.514,16.982,340.903,17.981,340.903,19.316z"/>
			<path id="XMLID_290_" class="st2" d="M346.89,15.952c0.479-0.082,1.151-0.143,2.1-0.143c0.958,0,1.641,0.184,2.1,0.55
				c0.438,0.347,0.734,0.917,0.734,1.59c0,0.672-0.225,1.243-0.633,1.631c-0.529,0.5-1.314,0.724-2.231,0.724
				c-0.204,0-0.388-0.01-0.53-0.031v2.457h-1.539V15.952z M348.429,19.071c0.133,0.031,0.296,0.041,0.52,0.041
				c0.826,0,1.336-0.418,1.336-1.121c0-0.632-0.438-1.009-1.213-1.009c-0.316,0-0.53,0.03-0.643,0.061V19.071z"/>
			<path id="XMLID_293_" class="st2" d="M352.815,15.86h1.56v5.565h2.731v1.305h-4.291V15.86z"/>
			<path id="XMLID_295_" class="st2" d="M359.626,20.967l-0.489,1.763h-1.611l2.101-6.87h2.038l2.13,6.87h-1.671l-0.53-1.763
				H359.626z M361.368,19.805l-0.428-1.458c-0.122-0.408-0.244-0.917-0.347-1.325h-0.021c-0.102,0.408-0.203,0.928-0.315,1.325
				l-0.408,1.458H361.368z"/>
			<path id="XMLID_298_" class="st2" d="M366.041,17.165h-1.845V15.86h5.279v1.305h-1.875v5.565h-1.56V17.165z"/>
			<path id="XMLID_300_" class="st2" d="M371.864,15.86v6.87h-1.56v-6.87H371.864z"/>
			<path id="XMLID_302_" class="st2" d="M373.21,22.731v-6.87h1.814l1.427,2.518c0.407,0.724,0.815,1.58,1.121,2.355h0.03
				c-0.102-0.907-0.132-1.835-0.132-2.864V15.86h1.427v6.87h-1.631l-1.468-2.65c-0.407-0.734-0.856-1.621-1.192-2.426l-0.031,0.01
				c0.041,0.907,0.062,1.875,0.062,2.997v2.069H373.21z"/>
			<path id="XMLID_304_" class="st2" d="M386.536,19.224c0,2.252-1.366,3.619-3.374,3.619c-2.038,0-3.231-1.54-3.231-3.497
				c0-2.059,1.315-3.598,3.344-3.598C385.384,15.749,386.536,17.328,386.536,19.224z M381.573,19.316
				c0,1.345,0.632,2.293,1.671,2.293c1.051,0,1.651-0.999,1.651-2.334c0-1.233-0.591-2.293-1.661-2.293
				C382.184,16.982,381.573,17.981,381.573,19.316z"/>
			<path id="XMLID_307_" class="st2" d="M387.049,23.138l2.182-7.39h1.029l-2.182,7.39H387.049z"/>
			<path id="XMLID_309_" class="st2" d="M390.935,15.952c0.479-0.082,1.151-0.143,2.1-0.143c0.958,0,1.641,0.184,2.1,0.55
				c0.438,0.347,0.734,0.917,0.734,1.59c0,0.672-0.225,1.243-0.633,1.631c-0.529,0.5-1.314,0.724-2.231,0.724
				c-0.204,0-0.388-0.01-0.53-0.031v2.457h-1.539V15.952z M392.474,19.071c0.133,0.031,0.296,0.041,0.52,0.041
				c0.826,0,1.336-0.418,1.336-1.121c0-0.632-0.438-1.009-1.213-1.009c-0.316,0-0.53,0.03-0.643,0.061V19.071z"/>
			<path id="XMLID_312_" class="st2" d="M398.46,20.967l-0.489,1.763h-1.611l2.101-6.87h2.038l2.13,6.87h-1.671l-0.53-1.763H398.46z
				 M400.202,19.805l-0.428-1.458c-0.122-0.408-0.244-0.917-0.347-1.325h-0.021c-0.102,0.408-0.203,0.928-0.315,1.325l-0.408,1.458
				H400.202z"/>
			<path id="XMLID_315_" class="st2" d="M408.594,22.537c-0.285,0.143-0.927,0.296-1.763,0.296c-2.375,0-3.599-1.478-3.599-3.435
				c0-2.344,1.672-3.649,3.751-3.649c0.806,0,1.417,0.163,1.692,0.306l-0.316,1.233c-0.315-0.133-0.754-0.255-1.305-0.255
				c-1.233,0-2.191,0.744-2.191,2.273c0,1.376,0.815,2.243,2.202,2.243c0.469,0,0.988-0.102,1.294-0.225L408.594,22.537z"/>
			<path id="XMLID_317_" class="st2" d="M409.617,15.86h1.56v5.565h2.731v1.305h-4.291V15.86z"/>
			<path id="XMLID_319_" class="st2" d="M416.388,15.86v6.87h-1.56v-6.87H416.388z"/>
			<path id="XMLID_321_" class="st2" d="M419.06,17.165h-1.845V15.86h5.279v1.305h-1.875v5.565h-1.56V17.165z"/>
			<path id="XMLID_323_" class="st2" d="M424.923,20.967l-0.489,1.763h-1.611l2.101-6.87h2.038l2.13,6.87h-1.671l-0.53-1.763
				H424.923z M426.665,19.805l-0.428-1.458c-0.122-0.408-0.244-0.917-0.347-1.325h-0.021c-0.102,0.408-0.203,0.928-0.315,1.325
				l-0.408,1.458H426.665z"/>
			<path id="XMLID_326_" class="st2" d="M433.631,22.731l-0.622-1.244c-0.254-0.479-0.417-0.836-0.611-1.233h-0.021
				c-0.143,0.397-0.315,0.754-0.529,1.233l-0.571,1.244h-1.773l1.987-3.476l-1.916-3.395h1.784l0.601,1.254
				c0.204,0.418,0.357,0.754,0.521,1.142h0.021c0.163-0.438,0.295-0.744,0.469-1.142l0.581-1.254h1.773l-1.937,3.354l2.038,3.517
				H433.631z"/>
			<path id="XMLID_328_" class="st2" d="M440.351,19.826h-2.527v1.631h2.823v1.274h-4.383v-6.87h4.24v1.274h-2.681v1.427h2.527
				V19.826z"/>
			<path id="XMLID_330_" class="st2" d="M441.709,15.86h1.56v5.565H446v1.305h-4.291V15.86z"/>
			<path id="XMLID_332_" class="st2" d="M451.161,15.687c-0.58,0.938-1.029,2.304-1.029,4.128c0,1.794,0.459,3.149,1.029,4.097
				h-1.08c-0.551-0.785-1.162-2.14-1.162-4.107c0.011-1.978,0.611-3.323,1.162-4.118H451.161z"/>
			<path id="XMLID_334_" class="st2" d="M451.643,22.731l0.632-3.364c0.122-0.632,0.204-1.182,0.265-1.621h1.305l-0.102,0.826h0.021
				c0.469-0.652,1.09-0.938,1.753-0.938c0.815,0,1.274,0.499,1.274,1.355c0,0.224-0.041,0.602-0.082,0.846l-0.551,2.895h-1.467
				l0.52-2.762c0.03-0.173,0.051-0.377,0.051-0.561c0-0.347-0.122-0.591-0.489-0.591c-0.479,0-1.04,0.602-1.243,1.702l-0.418,2.212
				H451.643z"/>
			<path id="XMLID_336_" class="st2" d="M459.718,19.418V18.47h5.26v0.948H459.718z M459.718,21.528V20.58h5.26v0.948H459.718z"/>
			<path id="XMLID_339_" class="st2" d="M470.619,22.731v-1.58h-2.936v-1.009l2.508-4.037h1.896v3.884h0.795v1.162h-0.795v1.58
				H470.619z M470.619,19.989v-1.468c0-0.397,0.021-0.806,0.051-1.233h-0.04c-0.215,0.428-0.388,0.815-0.612,1.233l-0.887,1.447
				v0.021H470.619z"/>
			<path id="XMLID_342_" class="st2" d="M478.286,16.105v0.979l-2.731,5.647h-1.641l2.731-5.331v-0.02h-3.038v-1.274H478.286z"/>
			<path id="XMLID_344_" class="st2" d="M479.125,23.913c0.561-0.938,1.03-2.313,1.03-4.118s-0.459-3.16-1.03-4.108h1.081
				c0.54,0.785,1.162,2.12,1.162,4.108c-0.011,1.988-0.622,3.323-1.162,4.118H479.125z"/>
		</g>
		<rect id="XMLID_8_" x="297.743" y="15.495" class="st2" width="8.501" height="7.241"/>
	</g>
</g>
<g id="txtNaranjaDer">
	<g id="XMLID_43_">
		<g id="XMLID_346_">
			<path id="XMLID_347_" class="st3" d="M316.173,0.37v6.87h-1.56V0.37H316.173z"/>
			<path id="XMLID_349_" class="st3" d="M317.52,0.461c0.499-0.082,1.243-0.143,2.069-0.143c1.019,0,1.732,0.153,2.222,0.54
				c0.408,0.326,0.632,0.805,0.632,1.438c0,0.876-0.621,1.478-1.213,1.692v0.031c0.479,0.193,0.744,0.652,0.918,1.284
				c0.214,0.774,0.428,1.671,0.561,1.937h-1.591c-0.112-0.194-0.274-0.754-0.479-1.6c-0.184-0.856-0.479-1.091-1.111-1.101h-0.469
				V7.24h-1.539V0.461z M319.059,3.418h0.611c0.774,0,1.233-0.387,1.233-0.989c0-0.632-0.428-0.948-1.142-0.958
				c-0.377,0-0.591,0.03-0.703,0.051V3.418z"/>
			<path id="XMLID_352_" class="st3" d="M327.655,4.335h-2.527v1.631h2.823V7.24h-4.383V0.37h4.24v1.274h-2.681v1.427h2.527V4.335z"
				/>
			<path id="XMLID_354_" class="st3" d="M329.064,5.64c0.418,0.214,1.061,0.428,1.723,0.428c0.714,0,1.091-0.295,1.091-0.744
				c0-0.428-0.326-0.673-1.152-0.969c-1.142-0.397-1.886-1.029-1.886-2.028c0-1.172,0.979-2.069,2.6-2.069
				c0.774,0,1.346,0.163,1.753,0.346l-0.347,1.254c-0.274-0.132-0.764-0.326-1.437-0.326s-0.999,0.306-0.999,0.663
				c0,0.438,0.387,0.632,1.273,0.968c1.214,0.448,1.784,1.081,1.784,2.049c0,1.152-0.887,2.13-2.772,2.13
				c-0.785,0-1.56-0.204-1.947-0.418L329.064,5.64z"/>
			<path id="XMLID_356_" class="st3" d="M334.571,5.64c0.418,0.214,1.061,0.428,1.723,0.428c0.714,0,1.091-0.295,1.091-0.744
				c0-0.428-0.326-0.673-1.152-0.969c-1.142-0.397-1.886-1.029-1.886-2.028c0-1.172,0.979-2.069,2.6-2.069
				c0.774,0,1.346,0.163,1.753,0.346l-0.347,1.254c-0.274-0.132-0.764-0.326-1.437-0.326s-0.999,0.306-0.999,0.663
				c0,0.438,0.387,0.632,1.274,0.968c1.213,0.448,1.783,1.081,1.783,2.049c0,1.152-0.887,2.13-2.772,2.13
				c-0.785,0-1.56-0.204-1.946-0.418L334.571,5.64z"/>
			<path id="XMLID_358_" class="st3" d="M341.627,5.477l-0.489,1.763h-1.611l2.101-6.87h2.038l2.131,6.87h-1.672l-0.53-1.763
				H341.627z M343.369,4.315l-0.428-1.458c-0.122-0.408-0.245-0.917-0.347-1.325h-0.021c-0.102,0.408-0.204,0.928-0.315,1.325
				l-0.408,1.458H343.369z"/>
			<path id="XMLID_361_" class="st3" d="M350.958,0.196c-0.581,0.938-1.03,2.304-1.03,4.128c0,1.794,0.459,3.149,1.03,4.098h-1.081
				c-0.55-0.785-1.162-2.141-1.162-4.108c0.011-1.978,0.612-3.323,1.162-4.118H350.958z"/>
			<path id="XMLID_363_" class="st3" d="M351.439,7.24l0.632-3.364c0.122-0.632,0.204-1.182,0.265-1.621h1.305l-0.102,0.826h0.021
				c0.469-0.652,1.091-0.938,1.753-0.938c0.815,0,1.274,0.5,1.274,1.356c0,0.224-0.041,0.601-0.082,0.846l-0.55,2.895h-1.469
				l0.521-2.762c0.03-0.173,0.051-0.377,0.051-0.561c0-0.347-0.122-0.591-0.489-0.591c-0.479,0-1.04,0.602-1.243,1.702l-0.418,2.212
				H351.439z"/>
			<path id="XMLID_365_" class="st3" d="M359.515,3.927V2.979h5.259v0.948H359.515z M359.515,6.037V5.089h5.259v0.948H359.515z"/>
			<path id="XMLID_368_" class="st3" d="M371.904,1.715c-0.174-0.01-0.356,0-0.602,0.021c-1.376,0.112-1.987,0.815-2.161,1.59h0.031
				c0.326-0.336,0.784-0.53,1.406-0.53c1.111,0,2.049,0.785,2.049,2.161c0,1.315-1.009,2.396-2.446,2.396
				c-1.764,0-2.63-1.315-2.63-2.895c0-1.244,0.459-2.283,1.172-2.946c0.663-0.601,1.52-0.927,2.559-0.979
				c0.286-0.021,0.469-0.021,0.622-0.01V1.715z M371.058,5.038c0-0.612-0.326-1.142-0.989-1.142c-0.418,0-0.765,0.255-0.917,0.591
				c-0.041,0.082-0.062,0.204-0.062,0.387c0.03,0.703,0.367,1.335,1.07,1.335C370.711,6.211,371.058,5.711,371.058,5.038z"/>
			<path id="XMLID_371_" class="st3" d="M376.075,7.24V5.66h-2.936V4.651l2.508-4.037h1.896v3.884h0.795V5.66h-0.795v1.58H376.075z
				 M376.075,4.498V3.03c0-0.398,0.021-0.805,0.051-1.233h-0.04c-0.215,0.428-0.388,0.815-0.612,1.233l-0.887,1.447v0.021H376.075z"
				/>
			<path id="XMLID_374_" class="st3" d="M378.921,8.422c0.561-0.938,1.029-2.314,1.029-4.118s-0.458-3.16-1.029-4.108h1.081
				c0.54,0.785,1.162,2.12,1.162,4.108c-0.011,1.988-0.622,3.323-1.162,4.118H378.921z"/>
		</g>
		<rect id="XMLID_9_" x="297.743" y="0" class="st3" width="8.501" height="7.241"/>
	</g>
</g>
<g id="lineaGrisIzq">
	<polyline id="XMLID_119_" class="lineaGris" points="1.217,74.687 7.203,74.687 7.203,78.107 10.111,78.107 10.111,79.647 11.82,79.647 
		11.82,82.554 13.017,82.554 13.017,84.264 15.24,84.264 15.24,85.461 17.293,85.461 17.293,87.172 21.397,87.172 21.397,91.96 
		22.766,91.96 22.766,93.841 24.134,93.841 24.134,95.723 30.804,95.723 30.804,97.946 32.001,97.946 32.001,102.564 
		33.882,102.564 33.882,105.129 36.448,105.129 36.448,106.497 38.158,106.497 38.158,108.208 40.039,108.208 40.039,110.26 
		41.579,110.26 41.579,118.299 42.947,118.299 42.947,126.85 44.315,126.85 44.315,128.388 46.196,128.388 46.196,129.415 
		47.907,129.415 47.907,130.954 50.13,130.954 50.13,132.664 50.984,132.664 50.984,136.769 52.524,136.769 52.524,140.189 
		54.064,140.189 54.064,144.636 55.089,144.636 55.089,145.491 56.458,145.491 56.458,147.443 57.621,147.443 57.621,150.498 
		61.785,150.498 61.785,152.096 63.036,152.096 63.036,157.513 68.66,157.513 68.66,159.665 71.577,159.665 71.577,161.957 
		74.216,161.957 74.216,164.319 77.065,164.319 77.065,166.469 124.77,166.469 124.77,170.427 153.795,170.427 	"/>
</g>
<g id="lineaNaranjaIzq">
	<polyline id="XMLID_113_" class="lineaNaranja" points="0.875,74.003 10.452,74.003 10.452,75.371 21.911,75.371 21.911,77.253 
		27.726,77.253 27.726,79.819 30.633,79.819 30.633,81.186 32.344,81.186 32.344,84.265 38.842,84.265 38.842,85.804 42.776,85.804 
		42.776,93.842 43.802,93.842 43.802,96.921 51.841,96.921 51.841,105.643 53.38,105.643 53.38,109.577 61.418,109.577 
		61.418,111.286 63.812,111.286 63.812,115.22 65.009,115.22 65.009,116.76 72.876,116.76 72.876,119.668 74.245,119.668 
		74.245,124.114 83.138,124.114 83.138,126.337 87.756,126.337 87.756,129.073 90.663,129.073 90.663,130.613 91.861,130.613 
		91.861,131.81 93.229,131.81 93.229,136.256 94.597,136.256 94.597,141.558 103.147,141.558 103.147,149.084 104.687,149.084 
		104.687,153.871 126.921,153.871 126.921,157.632 134.273,157.632 134.273,162.081 137.011,162.081 137.011,165.844 
		166.769,165.844 	"/>
</g>
<g id="txtGrisIzq">
	<g id="XMLID_44_">
		<g id="XMLID_998_">
			<path id="XMLID_999_" class="st2" d="M25.267,22.539c-0.286,0.143-0.928,0.296-1.764,0.296c-2.375,0-3.598-1.478-3.598-3.435
				c0-2.344,1.671-3.649,3.751-3.649c0.805,0,1.417,0.163,1.692,0.306l-0.316,1.233c-0.316-0.133-0.754-0.255-1.305-0.255
				c-1.233,0-2.191,0.744-2.191,2.273c0,1.376,0.815,2.242,2.202,2.242c0.469,0,0.989-0.102,1.294-0.224L25.267,22.539z"/>
			<path id="XMLID_1001_" class="st2" d="M27.889,20.97L27.4,22.733h-1.61l2.1-6.87h2.039l2.13,6.87h-1.671l-0.53-1.763H27.889z
				 M29.633,19.808l-0.428-1.458c-0.122-0.408-0.245-0.917-0.347-1.325h-0.021c-0.102,0.408-0.204,0.928-0.316,1.325l-0.408,1.458
				H29.633z"/>
			<path id="XMLID_1004_" class="st2" d="M32.979,15.955c0.5-0.082,1.243-0.143,2.069-0.143c1.02,0,1.733,0.153,2.222,0.54
				c0.408,0.326,0.632,0.805,0.632,1.438c0,0.876-0.622,1.478-1.213,1.692v0.031c0.479,0.193,0.744,0.652,0.917,1.284
				c0.214,0.774,0.428,1.671,0.561,1.937h-1.59c-0.112-0.194-0.275-0.754-0.479-1.6c-0.184-0.856-0.479-1.091-1.111-1.101h-0.469
				v2.701h-1.539V15.955z M34.518,18.911h0.611c0.775,0,1.233-0.387,1.233-0.989c0-0.632-0.428-0.948-1.142-0.958
				c-0.377,0-0.591,0.03-0.703,0.051V18.911z"/>
			<path id="XMLID_1007_" class="st2" d="M39.026,15.955c0.408-0.082,1.233-0.143,2.008-0.143c0.948,0,1.529,0.092,2.028,0.387
				c0.479,0.255,0.826,0.724,0.826,1.346c0,0.611-0.356,1.182-1.131,1.468v0.02c0.785,0.214,1.366,0.806,1.366,1.692
				c0,0.622-0.285,1.111-0.713,1.458c-0.5,0.397-1.335,0.622-2.701,0.622c-0.764,0-1.335-0.051-1.682-0.102V15.955z M40.565,18.585
				h0.51c0.815,0,1.253-0.336,1.253-0.846c0-0.52-0.397-0.795-1.101-0.795c-0.336,0-0.53,0.021-0.663,0.041V18.585z M40.565,21.632
				c0.153,0.02,0.336,0.02,0.601,0.02c0.704,0,1.325-0.265,1.325-0.989c0-0.693-0.622-0.968-1.396-0.968h-0.53V21.632z"/>
			<path id="XMLID_1011_" class="st2" d="M51.475,19.227c0,2.252-1.366,3.619-3.374,3.619c-2.039,0-3.231-1.539-3.231-3.496
				c0-2.059,1.315-3.598,3.343-3.598C50.323,15.751,51.475,17.331,51.475,19.227z M46.511,19.318c0,1.345,0.632,2.293,1.671,2.293
				c1.05,0,1.651-0.999,1.651-2.334c0-1.233-0.591-2.293-1.662-2.293C47.122,16.984,46.511,17.983,46.511,19.318z"/>
			<path id="XMLID_1014_" class="st2" d="M52.498,15.955c0.479-0.082,1.152-0.143,2.1-0.143c0.958,0,1.641,0.184,2.1,0.55
				c0.438,0.347,0.734,0.917,0.734,1.59c0,0.672-0.224,1.243-0.632,1.631c-0.53,0.499-1.315,0.724-2.232,0.724
				c-0.204,0-0.387-0.01-0.53-0.031v2.457h-1.539V15.955z M54.037,19.074c0.132,0.03,0.295,0.041,0.52,0.041
				c0.825,0,1.335-0.417,1.335-1.121c0-0.632-0.438-1.009-1.213-1.009c-0.316,0-0.53,0.031-0.642,0.062V19.074z"/>
			<path id="XMLID_1017_" class="st2" d="M58.423,15.863h1.56v5.565h2.731v1.305h-4.291V15.863z"/>
			<path id="XMLID_1019_" class="st2" d="M65.234,20.97l-0.489,1.763h-1.61l2.1-6.87h2.039l2.13,6.87h-1.672l-0.53-1.763H65.234z
				 M66.977,19.808l-0.428-1.458c-0.123-0.408-0.245-0.917-0.347-1.325h-0.02c-0.102,0.408-0.204,0.928-0.316,1.325l-0.408,1.458
				H66.977z"/>
			<path id="XMLID_1022_" class="st2" d="M71.649,17.168h-1.845v-1.305h5.28v1.305h-1.875v5.565h-1.559V17.168z"/>
			<path id="XMLID_1024_" class="st2" d="M77.472,15.863v6.87h-1.56v-6.87H77.472z"/>
			<path id="XMLID_1026_" class="st2" d="M78.818,22.733v-6.87h1.814l1.427,2.518c0.408,0.724,0.815,1.58,1.121,2.354h0.031
				c-0.102-0.907-0.133-1.834-0.133-2.864v-2.008h1.427v6.87h-1.631l-1.468-2.65c-0.408-0.733-0.856-1.621-1.192-2.426l-0.031,0.01
				c0.041,0.907,0.061,1.875,0.061,2.997v2.069H78.818z"/>
			<path id="XMLID_1028_" class="st2" d="M92.144,19.227c0,2.252-1.366,3.619-3.374,3.619c-2.039,0-3.231-1.539-3.231-3.496
				c0-2.059,1.315-3.598,3.343-3.598C90.992,15.751,92.144,17.331,92.144,19.227z M87.18,19.318c0,1.345,0.632,2.293,1.671,2.293
				c1.05,0,1.651-0.999,1.651-2.334c0-1.233-0.591-2.293-1.662-2.293C87.791,16.984,87.18,17.983,87.18,19.318z"/>
			<path id="XMLID_1031_" class="st2" d="M92.657,23.141l2.181-7.39h1.03l-2.182,7.39H92.657z"/>
			<path id="XMLID_1033_" class="st2" d="M96.542,15.955c0.479-0.082,1.152-0.143,2.1-0.143c0.958,0,1.641,0.184,2.1,0.55
				c0.438,0.347,0.734,0.917,0.734,1.59c0,0.672-0.224,1.243-0.632,1.631c-0.53,0.499-1.315,0.724-2.232,0.724
				c-0.204,0-0.387-0.01-0.53-0.031v2.457h-1.539V15.955z M98.081,19.074c0.132,0.03,0.295,0.041,0.52,0.041
				c0.826,0,1.335-0.417,1.335-1.121c0-0.632-0.438-1.009-1.213-1.009c-0.316,0-0.53,0.031-0.642,0.062V19.074z"/>
			<path id="XMLID_1036_" class="st2" d="M104.067,20.97l-0.489,1.763h-1.61l2.1-6.87h2.039l2.13,6.87h-1.671l-0.53-1.763H104.067z
				 M105.81,19.808l-0.428-1.458c-0.122-0.408-0.245-0.917-0.347-1.325h-0.021c-0.102,0.408-0.204,0.928-0.316,1.325l-0.408,1.458
				H105.81z"/>
			<path id="XMLID_1039_" class="st2" d="M114.202,22.539c-0.286,0.143-0.928,0.296-1.764,0.296c-2.375,0-3.598-1.478-3.598-3.435
				c0-2.344,1.671-3.649,3.751-3.649c0.805,0,1.417,0.163,1.692,0.306l-0.316,1.233c-0.316-0.133-0.754-0.255-1.305-0.255
				c-1.233,0-2.191,0.744-2.191,2.273c0,1.376,0.815,2.242,2.202,2.242c0.469,0,0.989-0.102,1.294-0.224L114.202,22.539z"/>
			<path id="XMLID_1041_" class="st2" d="M115.225,15.863h1.56v5.565h2.731v1.305h-4.291V15.863z"/>
			<path id="XMLID_1043_" class="st2" d="M121.995,15.863v6.87h-1.56v-6.87H121.995z"/>
			<path id="XMLID_1045_" class="st2" d="M124.667,17.168h-1.845v-1.305h5.28v1.305h-1.875v5.565h-1.559V17.168z"/>
			<path id="XMLID_1047_" class="st2" d="M130.531,20.97l-0.489,1.763h-1.61l2.1-6.87h2.039l2.13,6.87h-1.672l-0.53-1.763H130.531z
				 M132.274,19.808l-0.428-1.458c-0.123-0.408-0.245-0.917-0.347-1.325h-0.02c-0.102,0.408-0.204,0.928-0.316,1.325l-0.408,1.458
				H132.274z"/>
			<path id="XMLID_1050_" class="st2" d="M139.239,22.733l-0.622-1.244c-0.255-0.479-0.418-0.835-0.612-1.233h-0.02
				c-0.143,0.398-0.316,0.754-0.53,1.233l-0.571,1.244h-1.773l1.988-3.476l-1.917-3.395h1.784l0.602,1.254
				c0.204,0.418,0.357,0.754,0.52,1.142h0.02c0.163-0.438,0.296-0.744,0.469-1.142l0.581-1.254h1.774l-1.937,3.354l2.039,3.517
				H139.239z"/>
			<path id="XMLID_1052_" class="st2" d="M145.959,19.828h-2.528v1.631h2.823v1.274h-4.383v-6.87h4.24v1.274h-2.681v1.427h2.528
				V19.828z"/>
			<path id="XMLID_1054_" class="st2" d="M147.318,15.863h1.56v5.565h2.731v1.305h-4.291V15.863z"/>
			<path id="XMLID_1056_" class="st2" d="M156.77,15.69c-0.581,0.938-1.029,2.304-1.029,4.128c0,1.794,0.458,3.149,1.029,4.098
				h-1.081c-0.55-0.785-1.162-2.141-1.162-4.108c0.01-1.978,0.611-3.323,1.162-4.118H156.77z"/>
			<path id="XMLID_1058_" class="st2" d="M157.25,22.733l0.632-3.364c0.122-0.632,0.204-1.182,0.265-1.621h1.305l-0.102,0.826h0.02
				c0.469-0.652,1.091-0.938,1.753-0.938c0.815,0,1.274,0.5,1.274,1.356c0,0.224-0.041,0.601-0.082,0.846l-0.55,2.895h-1.468
				l0.52-2.762c0.03-0.173,0.051-0.377,0.051-0.561c0-0.347-0.123-0.591-0.489-0.591c-0.479,0-1.04,0.602-1.244,1.702l-0.418,2.212
				H157.25z"/>
			<path id="XMLID_1060_" class="st2" d="M165.327,19.42v-0.948h5.259v0.948H165.327z M165.327,21.53v-0.948h5.259v0.948H165.327z"
				/>
			<path id="XMLID_1063_" class="st2" d="M178.235,16.107v0.979l-2.731,5.647h-1.641l2.732-5.331v-0.02h-3.038v-1.274H178.235z"/>
			<path id="XMLID_1065_" class="st2" d="M181.887,22.733v-1.58h-2.936v-1.009l2.507-4.037h1.896v3.884h0.795v1.162h-0.795v1.58
				H181.887z M181.887,19.991v-1.468c0-0.398,0.021-0.805,0.051-1.233h-0.04c-0.214,0.428-0.388,0.815-0.612,1.233l-0.887,1.447
				v0.021H181.887z"/>
			<path id="XMLID_1068_" class="st2" d="M184.733,23.916c0.561-0.938,1.03-2.314,1.03-4.118s-0.459-3.16-1.03-4.108h1.081
				c0.54,0.785,1.162,2.12,1.162,4.108c-0.011,1.988-0.622,3.323-1.162,4.118H184.733z"/>
		</g>
		<rect id="XMLID_114_" x="3.35" y="15.495" class="st2" width="8.501" height="7.241"/>
	</g>
</g>
<g id="txtNaranjaIzq">
	<g id="XMLID_1_">
		<g id="XMLID_1070_">
			<path id="XMLID_1071_" class="st3" d="M21.781,0.372v6.87h-1.56v-6.87H21.781z"/>
			<path id="XMLID_1073_" class="st3" d="M23.128,0.463c0.5-0.082,1.244-0.143,2.069-0.143c1.02,0,1.733,0.153,2.222,0.54
				c0.408,0.326,0.632,0.805,0.632,1.438c0,0.876-0.622,1.478-1.213,1.692v0.031c0.479,0.193,0.744,0.652,0.917,1.284
				c0.214,0.774,0.428,1.671,0.561,1.937h-1.59c-0.112-0.194-0.275-0.754-0.479-1.6c-0.183-0.856-0.479-1.091-1.111-1.101h-0.469
				v2.701h-1.539V0.463z M24.667,3.42h0.611c0.775,0,1.233-0.387,1.233-0.989c0-0.632-0.428-0.948-1.142-0.958
				c-0.377,0-0.591,0.03-0.703,0.051V3.42z"/>
			<path id="XMLID_1076_" class="st3" d="M33.263,4.337h-2.528v1.631h2.823v1.274h-4.383v-6.87h4.24v1.274h-2.681v1.427h2.528V4.337
				z"/>
			<path id="XMLID_1078_" class="st3" d="M34.672,5.642c0.418,0.214,1.06,0.428,1.723,0.428c0.713,0,1.091-0.295,1.091-0.744
				c0-0.428-0.326-0.673-1.152-0.969c-1.142-0.397-1.886-1.029-1.886-2.028c0-1.172,0.979-2.069,2.599-2.069
				c0.775,0,1.345,0.163,1.753,0.346L38.453,1.86c-0.275-0.132-0.765-0.326-1.438-0.326c-0.672,0-0.999,0.306-0.999,0.663
				c0,0.438,0.387,0.632,1.274,0.968c1.213,0.448,1.784,1.081,1.784,2.049c0,1.152-0.887,2.13-2.772,2.13
				c-0.785,0-1.56-0.204-1.947-0.418L34.672,5.642z"/>
			<path id="XMLID_1080_" class="st3" d="M40.179,5.642c0.418,0.214,1.06,0.428,1.723,0.428c0.713,0,1.091-0.295,1.091-0.744
				c0-0.428-0.326-0.673-1.152-0.969c-1.142-0.397-1.886-1.029-1.886-2.028c0-1.172,0.979-2.069,2.599-2.069
				c0.775,0,1.345,0.163,1.753,0.346L43.96,1.86c-0.275-0.132-0.765-0.326-1.438-0.326c-0.672,0-0.999,0.306-0.999,0.663
				c0,0.438,0.387,0.632,1.274,0.968c1.213,0.448,1.784,1.081,1.784,2.049c0,1.152-0.887,2.13-2.772,2.13
				c-0.785,0-1.56-0.204-1.947-0.418L40.179,5.642z"/>
			<path id="XMLID_1082_" class="st3" d="M47.235,5.479l-0.489,1.763h-1.61l2.1-6.87h2.039l2.13,6.87h-1.672l-0.53-1.763H47.235z
				 M48.978,4.316L48.55,2.859c-0.123-0.408-0.245-0.917-0.347-1.325h-0.02c-0.102,0.408-0.204,0.928-0.316,1.325l-0.408,1.458
				H48.978z"/>
			<path id="XMLID_1085_" class="st3" d="M56.566,0.198c-0.581,0.938-1.029,2.304-1.029,4.128c0,1.794,0.458,3.149,1.029,4.098
				h-1.081c-0.55-0.785-1.162-2.141-1.162-4.108c0.01-1.978,0.611-3.323,1.162-4.118H56.566z"/>
			<path id="XMLID_1087_" class="st3" d="M57.046,7.242l0.632-3.364c0.122-0.632,0.204-1.182,0.265-1.621h1.305l-0.102,0.826h0.02
				c0.469-0.652,1.091-0.938,1.753-0.938c0.815,0,1.274,0.5,1.274,1.356c0,0.224-0.041,0.601-0.082,0.846l-0.55,2.895h-1.468
				l0.52-2.762c0.03-0.173,0.051-0.377,0.051-0.561c0-0.347-0.123-0.591-0.489-0.591c-0.479,0-1.04,0.602-1.244,1.702l-0.418,2.212
				H57.046z"/>
			<path id="XMLID_1089_" class="st3" d="M65.123,3.929V2.981h5.259v0.948H65.123z M65.123,6.039V5.091h5.259v0.948H65.123z"/>
			<path id="XMLID_1092_" class="st3" d="M77.511,1.717c-0.173-0.01-0.357,0-0.602,0.021c-1.376,0.112-1.987,0.815-2.161,1.59h0.03
				c0.326-0.336,0.785-0.53,1.407-0.53c1.111,0,2.049,0.785,2.049,2.161c0,1.315-1.009,2.396-2.446,2.396
				c-1.763,0-2.63-1.315-2.63-2.895c0-1.244,0.459-2.283,1.172-2.946c0.663-0.601,1.519-0.927,2.558-0.979
				c0.286-0.021,0.469-0.021,0.622-0.01V1.717z M76.665,5.04c0-0.612-0.326-1.142-0.989-1.142c-0.418,0-0.764,0.255-0.917,0.591
				c-0.041,0.082-0.062,0.204-0.062,0.387c0.031,0.703,0.367,1.335,1.07,1.335C76.319,6.212,76.665,5.713,76.665,5.04z"/>
			<path id="XMLID_1095_" class="st3" d="M83.171,1.717c-0.173-0.01-0.357,0-0.602,0.021c-1.376,0.112-1.987,0.815-2.161,1.59h0.03
				c0.326-0.336,0.785-0.53,1.407-0.53c1.111,0,2.049,0.785,2.049,2.161c0,1.315-1.009,2.396-2.446,2.396
				c-1.763,0-2.63-1.315-2.63-2.895c0-1.244,0.459-2.283,1.172-2.946c0.663-0.601,1.519-0.927,2.558-0.979
				c0.286-0.021,0.469-0.021,0.622-0.01V1.717z M82.325,5.04c0-0.612-0.326-1.142-0.989-1.142c-0.418,0-0.764,0.255-0.917,0.591
				c-0.041,0.082-0.062,0.204-0.062,0.387c0.031,0.703,0.367,1.335,1.07,1.335C81.979,6.212,82.325,5.713,82.325,5.04z"/>
			<path id="XMLID_1098_" class="st3" d="M84.53,8.424c0.561-0.938,1.029-2.314,1.029-4.118S85.1,1.147,84.53,0.198h1.08
				c0.541,0.785,1.162,2.12,1.162,4.108c-0.01,1.988-0.622,3.323-1.162,4.118H84.53z"/>
		</g>
		<rect id="XMLID_115_" x="3.35" y="0" class="st3" width="8.501" height="7.241"/>
	</g>
</g>
</svg>
