<?xml version="1.0" encoding="utf-8"?>
<svg version="1.1" xmlns="http://www.w3.org/2000/svg" xmlns:xlink="http://www.w3.org/1999/xlink" x="0px" y="0px"
	 width="474.425px" height="212.45px" viewBox="-644.503 678.583 474.425 212.45"
	 style="enable-background:new -644.503 678.583 474.425 212.45;" xml:space="preserve">
<style type="text/css">
	.st0{
		fill:#666666;
	}

	.st0{
		fill:transparent;
		-webkit-animation: st0 1s ease-in-out forwards 4.5s;
		-moz-animation: st0 1s ease-in-out forwards 4.5s;
		-o-animation: st0 1s ease-in-out forwards 4.5s
		animation: st0 1s ease-in-out forwards 4.5s;

	}

		@-webkit-keyframes st0 {
			from{fill:transparent}
			to{fill:#666666}
	}

		@keyframes st0 {
			from{fill:transparent}
			to{fill:#666666}
	}



	.st1{enable-background:new;}


	.st2{
		fill:#E8500E;
	}

	.st2{
		fill:transparent;
		-webkit-animation: st2 1s ease-in-out forwards 2.5s;
		-moz-animation: st2 1s ease-in-out forwards 2.5s;
		-o-animation: st2 1s ease-in-out forwards 2.5s
		animation: st2 1s ease-in-out forwards 2.5s;

	}

		@-webkit-keyframes st2 {
			from{fill:transparent}
			to{fill:#E8500E}
	}

		@keyframes st2 {
			from{fill:transparent}
			to{fill:#E8500E}
	}
	.lineaGris{
		fill:none;
		stroke:transparent;
		stroke-width:42;
		stroke-miterlimit:10;
	}

	.lineaGris{
		stroke-dasharray:1000;
		stroke-dashoffset:0;
		-webkit-animation: lineaGris 4s ease-in-out forwards 3.5s;
		-moz-animation: lineaGris 4s ease-in-out forwards 3.5s;
		-o-animation: lineaGris 4s ease-in-out forwards 3.5s;
		animation: lineaGris 4s ease-in-out forwards 3.5s;
	}

	@-webkit-keyframes lineaGris{
		from{
			stroke-dashoffset: -1000;
			stroke:#666666;
		}

		to{
			stroke-dashoffset: 0;
			stroke:#666666;
		}
	}


	.lineaNaranja{
		fill:none;
		stroke:transparent;
		stroke-width:42;
		stroke-miterlimit:10;
	}

	.lineaNaranja{
		stroke-dasharray:1000;
		stroke-dashoffset:0;
		-webkit-animation: lineaNaranja 2s ease-in-out forwards 1.5s;
		-moz-animation: lineaNaranja 2s ease-in-out forwards 1.5s;
		-o-animation: lineaNaranja 2s ease-in-out forwards 1.5s;
		animation: lineaNaranja 2s ease-in-out forwards 1.5s;
	}

	@-webkit-keyframes lineaNaranja{
		from{
			stroke-dashoffset: -1000;
			stroke:#F05724;
		}

		to{
			stroke-dashoffset: 0;
			stroke:#F05724;
		}
	}

</style>
<g id="txtGris">
	<g>
		<rect id="XMLID_87_" x="-262.342" y="693.076" class="st0" width="8.555" height="7.286"/>
		<g class="st1">
			<path class="st0" d="M-238.833,701.886c-0.986-0.288-1.808-0.586-2.731-0.976c-0.154-0.062-0.318-0.093-0.483-0.103
				c-1.561-0.103-3.019-1.253-3.019-3.513c0-2.074,1.314-3.635,3.378-3.635c2.116,0,3.276,1.602,3.276,3.491
				c0,1.571-0.729,2.681-1.644,3.091v0.041c0.534,0.154,1.13,0.277,1.674,0.391L-238.833,701.886z M-240.065,697.213
				c0-1.263-0.596-2.311-1.664-2.311c-1.067,0-1.684,1.048-1.684,2.342c-0.011,1.314,0.626,2.32,1.674,2.32
				C-240.682,699.565-240.065,698.569-240.065,697.213z"/>
			<path class="st0" d="M-235.829,693.773v3.985c0,1.19,0.451,1.797,1.253,1.797c0.821,0,1.273-0.575,1.273-1.797v-3.985h1.561
				v3.882c0,2.137-1.078,3.153-2.886,3.153c-1.746,0-2.772-0.966-2.772-3.174v-3.861H-235.829z"/>
			<path class="st0" d="M-228.82,693.773v6.922h-1.571v-6.922H-228.82z"/>
			<path class="st0" d="M-221.613,698.045c-0.031-0.832-0.062-1.838-0.062-2.845h-0.031c-0.216,0.883-0.503,1.869-0.771,2.681
				l-0.842,2.7h-1.222l-0.739-2.68c-0.227-0.812-0.463-1.797-0.627-2.701h-0.021c-0.041,0.935-0.071,2.003-0.123,2.865l-0.123,2.629
				h-1.448l0.441-6.922h2.085l0.678,2.311c0.216,0.802,0.432,1.664,0.585,2.476h0.031c0.195-0.801,0.432-1.715,0.657-2.485
				l0.739-2.301h2.044l0.38,6.922h-1.53L-221.613,698.045z"/>
			<path class="st0" d="M-217.214,693.773v6.922h-1.571v-6.922H-217.214z"/>
			<path class="st0" d="M-209.524,697.163c0,2.27-1.376,3.646-3.399,3.646c-2.054,0-3.255-1.551-3.255-3.522
				c0-2.074,1.324-3.625,3.368-3.625C-210.685,693.661-209.524,695.252-209.524,697.163z M-214.525,697.254
				c0,1.355,0.637,2.311,1.684,2.311c1.058,0,1.664-1.006,1.664-2.352c0-1.242-0.596-2.311-1.674-2.311
				C-213.909,694.903-214.525,695.91-214.525,697.254z"/>
			<path class="st0" d="M-207.455,695.087h-1.859v-1.314h5.32v1.314h-1.89v5.607h-1.571V695.087z"/>
			<path class="st0" d="M-199.048,697.768h-2.547v1.644h2.845v1.283h-4.416v-6.922h4.271v1.284h-2.7v1.438h2.547V697.768z"/>
			<path class="st0" d="M-197.686,693.866c0.504-0.082,1.253-0.144,2.085-0.144c1.027,0,1.746,0.154,2.238,0.544
				c0.411,0.329,0.637,0.812,0.637,1.448c0,0.883-0.626,1.489-1.222,1.705v0.03c0.482,0.195,0.75,0.657,0.924,1.294
				c0.216,0.78,0.432,1.685,0.565,1.951h-1.603c-0.112-0.195-0.277-0.76-0.482-1.612c-0.185-0.862-0.482-1.099-1.119-1.109h-0.473
				v2.722h-1.551V693.866z M-196.136,696.844h0.616c0.78,0,1.242-0.391,1.242-0.996c0-0.637-0.431-0.955-1.149-0.966
				c-0.38,0-0.596,0.031-0.709,0.052V696.844z"/>
			<path class="st0" d="M-189.896,698.918l-0.493,1.776h-1.622l2.115-6.922h2.054l2.146,6.922h-1.685l-0.534-1.776H-189.896z
				 M-188.141,697.747l-0.432-1.469c-0.123-0.41-0.246-0.924-0.349-1.335h-0.021c-0.103,0.411-0.206,0.935-0.318,1.335l-0.411,1.469
				H-188.141z"/>
			<path class="st0" d="M-184.777,693.866c0.483-0.082,1.161-0.144,2.116-0.144c0.965,0,1.653,0.185,2.115,0.555
				c0.441,0.349,0.739,0.924,0.739,1.602s-0.226,1.253-0.637,1.644c-0.534,0.503-1.325,0.729-2.249,0.729
				c-0.205,0-0.391-0.01-0.534-0.03v2.475h-1.551V693.866z M-183.227,697.008c0.134,0.03,0.298,0.041,0.523,0.041
				c0.832,0,1.346-0.421,1.346-1.13c0-0.637-0.441-1.017-1.222-1.017c-0.318,0-0.534,0.031-0.647,0.062V697.008z"/>
			<path class="st0" d="M-177.243,693.773v6.922h-1.571v-6.922H-177.243z"/>
			<path class="st0" d="M-174.278,698.918l-0.493,1.776h-1.622l2.115-6.922h2.054l2.146,6.922h-1.684l-0.534-1.776H-174.278z
				 M-172.522,697.747l-0.431-1.469c-0.123-0.41-0.247-0.924-0.35-1.335h-0.021c-0.103,0.411-0.205,0.935-0.318,1.335l-0.41,1.469
				H-172.522z"/>
		</g>
	</g>
</g>
<g id="txtNaranja">
	<g>
		<rect id="XMLID_88_" x="-262.342" y="678.583" class="st2" width="8.555" height="7.286"/>
		<g class="st1">
			<path class="st2" d="M-243.29,679.283v6.922h-1.571v-6.922H-243.29z"/>
			<path class="st2" d="M-241.936,679.375c0.503-0.082,1.253-0.144,2.084-0.144c1.027,0,1.746,0.154,2.239,0.544
				c0.41,0.329,0.637,0.812,0.637,1.448c0,0.883-0.627,1.489-1.223,1.705v0.03c0.483,0.195,0.75,0.657,0.925,1.294
				c0.216,0.78,0.432,1.685,0.564,1.951h-1.602c-0.113-0.195-0.277-0.76-0.482-1.612c-0.186-0.862-0.483-1.099-1.12-1.109h-0.472
				v2.722h-1.551V679.375z M-240.386,682.354h0.616c0.78,0,1.242-0.391,1.242-0.996c0-0.637-0.432-0.955-1.15-0.966
				c-0.38,0-0.596,0.031-0.708,0.052V682.354z"/>
			<path class="st2" d="M-231.733,683.278h-2.547v1.644h2.845v1.283h-4.416v-6.922h4.271v1.284h-2.7v1.438h2.547V683.278z"/>
			<path class="st2" d="M-230.32,684.592c0.421,0.216,1.067,0.432,1.735,0.432c0.719,0,1.099-0.298,1.099-0.75
				c0-0.432-0.328-0.678-1.16-0.976c-1.15-0.4-1.899-1.037-1.899-2.044c0-1.181,0.985-2.084,2.618-2.084
				c0.78,0,1.355,0.164,1.767,0.349l-0.35,1.264c-0.277-0.134-0.771-0.329-1.448-0.329s-1.006,0.309-1.006,0.668
				c0,0.441,0.391,0.637,1.283,0.976c1.223,0.451,1.798,1.088,1.798,2.063c0,1.161-0.894,2.146-2.794,2.146
				c-0.79,0-1.571-0.205-1.961-0.421L-230.32,684.592z"/>
			<path class="st2" d="M-224.779,684.592c0.422,0.216,1.068,0.432,1.736,0.432c0.719,0,1.099-0.298,1.099-0.75
				c0-0.432-0.329-0.678-1.161-0.976c-1.149-0.4-1.899-1.037-1.899-2.044c0-1.181,0.986-2.084,2.619-2.084
				c0.78,0,1.355,0.164,1.766,0.349l-0.349,1.264c-0.277-0.134-0.771-0.329-1.448-0.329s-1.007,0.309-1.007,0.668
				c0,0.441,0.391,0.637,1.284,0.976c1.222,0.451,1.797,1.088,1.797,2.063c0,1.161-0.894,2.146-2.793,2.146
				c-0.791,0-1.571-0.205-1.962-0.421L-224.779,684.592z"/>
			<path class="st2" d="M-217.677,684.428l-0.493,1.776h-1.622l2.115-6.922h2.054l2.146,6.922h-1.684l-0.534-1.776H-217.677z
				 M-215.921,683.257l-0.431-1.469c-0.123-0.41-0.247-0.924-0.35-1.335h-0.021c-0.103,0.411-0.205,0.935-0.318,1.335l-0.41,1.469
				H-215.921z"/>
			<path class="st2" d="M-209.055,680.936c0,0.986-0.802,1.777-1.818,1.777s-1.827-0.791-1.827-1.777
				c0-0.976,0.811-1.766,1.827-1.766S-209.055,679.96-209.055,680.936z M-212.156,680.947c0,0.739,0.544,1.325,1.283,1.325
				s1.284-0.586,1.284-1.336c0-0.729-0.545-1.324-1.294-1.324C-211.612,679.612-212.156,680.207-212.156,680.947z M-211.099,681.779
				h-0.503v-1.633c0.112-0.021,0.38-0.052,0.719-0.052c0.369,0,0.534,0.052,0.657,0.123c0.103,0.072,0.175,0.195,0.175,0.359
				c0,0.165-0.154,0.309-0.38,0.37v0.021c0.185,0.062,0.287,0.185,0.339,0.421c0.051,0.236,0.082,0.329,0.112,0.391h-0.564
				c-0.052-0.062-0.082-0.206-0.113-0.35c-0.03-0.164-0.112-0.246-0.277-0.246h-0.164V681.779z M-211.078,680.844h0.144
				c0.186,0,0.309-0.072,0.309-0.195c0-0.134-0.113-0.205-0.288-0.205c-0.062,0-0.123,0.01-0.164,0.01V680.844z"/>
		</g>
	</g>
</g>
<g id="numeroGris">
	<g>
		<g class="st1">
			<path class="st0" d="M-594.566,778.086v-3.633h-6.198v-1.19l5.952-8.517h1.949v8.291h1.868v1.416h-1.868v3.633H-594.566z
				 M-594.566,773.038v-4.453c0-0.698,0.021-1.396,0.062-2.094h-0.062c-0.411,0.78-0.739,1.354-1.108,1.971l-3.263,4.535v0.041
				H-594.566z"/>
		</g>
		<g class="st1">
			<path class="st0" d="M-580.958,764.747v1.19l-5.808,12.149h-1.868l5.788-11.801v-0.041h-6.526v-1.498H-580.958z"/>
		</g>
		<g class="st1">
			<path class="st0" d="M-579.337,777.019c0-0.759,0.513-1.293,1.231-1.293c0.718,0,1.21,0.534,1.21,1.293
				c0,0.739-0.472,1.293-1.231,1.293C-578.845,778.312-579.337,777.758-579.337,777.019z"/>
			<path class="st0" d="M-574.802,776.013c0.513,0.329,1.704,0.842,2.956,0.842c2.319,0,3.037-1.478,3.017-2.586
				c-0.021-1.867-1.703-2.668-3.448-2.668h-1.006v-1.354h1.006c1.313,0,2.976-0.677,2.976-2.258c0-1.066-0.677-2.011-2.339-2.011
				c-1.067,0-2.093,0.472-2.668,0.882l-0.472-1.313c0.698-0.513,2.052-1.025,3.489-1.025c2.627,0,3.817,1.56,3.817,3.181
				c0,1.375-0.821,2.545-2.463,3.14v0.042c1.642,0.328,2.976,1.56,2.976,3.427c0,2.135-1.663,4.002-4.864,4.002
				c-1.499,0-2.812-0.472-3.469-0.903L-574.802,776.013z"/>
		</g>
		<g class="st1">
			<path class="st0" d="M-559.965,766.962c0,1.759-0.924,2.631-2.002,2.631c-1.04,0-1.938-0.834-1.951-2.515
				c0-1.669,0.911-2.605,2.015-2.605C-560.735,764.473-559.965,765.372-559.965,766.962z M-563.019,767.039
				c-0.025,1.065,0.372,1.874,1.078,1.874c0.744,0,1.078-0.796,1.078-1.899c0-1.014-0.295-1.861-1.078-1.861
				C-562.647,765.153-563.019,765.988-563.019,767.039z M-562.043,773.097l4.902-8.624h0.719l-4.902,8.624H-562.043z
				 M-554.537,770.414c0,1.758-0.924,2.631-1.989,2.631c-1.039,0-1.938-0.834-1.95-2.502c0-1.682,0.911-2.618,2.015-2.618
				C-555.294,767.925-554.537,768.824-554.537,770.414z M-557.591,770.492c-0.013,1.065,0.398,1.874,1.091,1.874
				c0.744,0,1.078-0.796,1.078-1.899c0-1.014-0.295-1.861-1.078-1.861C-557.206,768.605-557.591,769.439-557.591,770.492z"/>
		</g>
	</g>
	<g>
		<g class="st1">
			<path class="st0" d="M-499.246,810.1c0.513,0.329,1.704,0.842,2.956,0.842c2.319,0,3.037-1.478,3.017-2.586
				c-0.021-1.867-1.703-2.668-3.448-2.668h-1.006v-1.354h1.006c1.313,0,2.976-0.677,2.976-2.258c0-1.066-0.677-2.011-2.339-2.011
				c-1.067,0-2.093,0.472-2.668,0.882l-0.472-1.313c0.698-0.513,2.052-1.025,3.489-1.025c2.627,0,3.817,1.56,3.817,3.181
				c0,1.375-0.821,2.545-2.463,3.14v0.042c1.642,0.328,2.976,1.56,2.976,3.427c0,2.135-1.663,4.002-4.864,4.002
				c-1.499,0-2.812-0.472-3.469-0.903L-499.246,810.1z"/>
			<path class="st0" d="M-489.148,812.173v-1.108l1.417-1.375c3.407-3.242,4.946-4.967,4.966-6.978c0-1.354-0.657-2.606-2.647-2.606
				c-1.211,0-2.216,0.615-2.832,1.129l-0.575-1.272c0.923-0.78,2.237-1.354,3.776-1.354c2.873,0,4.084,1.97,4.084,3.879
				c0,2.462-1.786,4.453-4.597,7.162l-1.067,0.985v0.041h5.993v1.498H-489.148z"/>
			<path class="st0" d="M-478.475,811.106c0-0.759,0.513-1.293,1.231-1.293c0.718,0,1.21,0.534,1.21,1.293
				c0,0.739-0.472,1.293-1.231,1.293C-477.983,812.399-478.475,811.845-478.475,811.106z"/>
			<path class="st0" d="M-474.371,812.173v-1.108l1.417-1.375c3.407-3.242,4.946-4.967,4.966-6.978c0-1.354-0.657-2.606-2.647-2.606
				c-1.211,0-2.216,0.615-2.832,1.129l-0.575-1.272c0.923-0.78,2.237-1.354,3.776-1.354c2.873,0,4.084,1.97,4.084,3.879
				c0,2.462-1.786,4.453-4.597,7.162l-1.067,0.985v0.041h5.993v1.498H-474.371z"/>
		</g>
		<g class="st1">
			<path class="st0" d="M-459.084,801.048c0,1.759-0.924,2.631-2.002,2.631c-1.04,0-1.938-0.834-1.951-2.515
				c0-1.669,0.911-2.605,2.015-2.605C-459.854,798.559-459.084,799.457-459.084,801.048z M-462.138,801.125
				c-0.025,1.065,0.372,1.874,1.078,1.874c0.744,0,1.078-0.796,1.078-1.899c0-1.014-0.295-1.861-1.078-1.861
				C-461.766,799.239-462.138,800.074-462.138,801.125z M-461.163,807.183l4.902-8.624h0.719l-4.902,8.624H-461.163z
				 M-453.656,804.5c0,1.758-0.924,2.631-1.989,2.631c-1.039,0-1.938-0.834-1.95-2.502c0-1.682,0.911-2.618,2.015-2.618
				C-454.413,802.011-453.656,802.91-453.656,804.5z M-456.71,804.578c-0.013,1.065,0.398,1.874,1.091,1.874
				c0.744,0,1.078-0.796,1.078-1.899c0-1.014-0.295-1.861-1.078-1.861C-456.325,802.691-456.71,803.525-456.71,804.578z"/>
		</g>
	</g>
	<g>
		<g class="st1">
			<path class="st0" d="M-393.391,813.486c0.513,0.329,1.703,0.842,2.955,0.842c2.319,0,3.037-1.478,3.017-2.586
				c-0.021-1.867-1.703-2.668-3.447-2.668h-1.006v-1.354h1.006c1.313,0,2.976-0.677,2.976-2.258c0-1.066-0.678-2.011-2.34-2.011
				c-1.067,0-2.093,0.472-2.668,0.882l-0.472-1.313c0.697-0.513,2.052-1.025,3.488-1.025c2.627,0,3.817,1.56,3.817,3.181
				c0,1.375-0.82,2.545-2.463,3.14v0.042c1.643,0.328,2.977,1.56,2.977,3.427c0,2.135-1.663,4.002-4.864,4.002
				c-1.498,0-2.812-0.472-3.469-0.903L-393.391,813.486z"/>
		</g>
		<g class="st1">
			<path class="st0" d="M-374.633,808.746c0,4.535-1.684,7.039-4.639,7.039c-2.606,0-4.371-2.442-4.412-6.854
				c0-4.474,1.929-6.937,4.638-6.937C-376.234,801.994-374.633,804.497-374.633,808.746z M-381.878,808.951
				c0,3.469,1.067,5.438,2.709,5.438c1.848,0,2.729-2.155,2.729-5.562c0-3.284-0.841-5.438-2.709-5.438
				C-380.728,803.389-381.878,805.318-381.878,808.951z"/>
			<path class="st0" d="M-372.826,814.492c0-0.759,0.513-1.293,1.23-1.293c0.719,0,1.211,0.534,1.211,1.293
				c0,0.739-0.472,1.293-1.231,1.293C-372.334,815.785-372.826,815.231-372.826,814.492z"/>
			<path class="st0" d="M-360.061,802.219v1.19l-5.808,12.149h-1.868l5.788-11.801v-0.041h-6.526v-1.498H-360.061z"/>
		</g>
		<g class="st1">
			<path class="st0" d="M-353.435,804.434c0,1.759-0.924,2.631-2.002,2.631c-1.039,0-1.938-0.834-1.95-2.515
				c0-1.669,0.911-2.605,2.015-2.605C-354.204,801.945-353.435,802.843-353.435,804.434z M-356.488,804.511
				c-0.025,1.065,0.372,1.874,1.078,1.874c0.744,0,1.077-0.796,1.077-1.899c0-1.014-0.295-1.861-1.077-1.861
				C-356.116,802.624-356.488,803.459-356.488,804.511z M-355.513,810.569l4.901-8.624h0.719l-4.902,8.624H-355.513z
				 M-348.006,807.886c0,1.758-0.924,2.631-1.989,2.631c-1.039,0-1.938-0.834-1.95-2.502c0-1.682,0.911-2.618,2.015-2.618
				C-348.764,805.397-348.006,806.295-348.006,807.886z M-351.061,807.963c-0.013,1.065,0.398,1.874,1.091,1.874
				c0.744,0,1.078-0.796,1.078-1.899c0-1.014-0.295-1.861-1.078-1.861C-350.675,806.077-351.061,806.911-351.061,807.963z"/>
		</g>
	</g>
</g>
<g id="numerosNaranja">
	<g>
		<g class="st1">
			<path class="st2" d="M-635.413,710.12v1.19l-5.808,12.149h-1.868l5.788-11.801v-0.041h-6.526v-1.498H-635.413z"/>
		</g>
		<g class="st1">
			<path class="st2" d="M-631.247,711.802h-0.041l-2.319,1.252l-0.349-1.375l2.915-1.56h1.539v13.34h-1.745V711.802z"/>
		</g>
		<g class="st1">
			<path class="st2" d="M-624.494,722.392c0-0.759,0.513-1.293,1.231-1.293c0.718,0,1.21,0.534,1.21,1.293
				c0,0.739-0.472,1.293-1.231,1.293C-624.001,723.685-624.494,723.131-624.494,722.392z"/>
		</g>
		<g class="st1">
			<path class="st2" d="M-620.779,723.459v-1.108l1.416-1.375c3.407-3.242,4.946-4.967,4.967-6.978c0-1.354-0.657-2.606-2.647-2.606
				c-1.211,0-2.217,0.615-2.832,1.129l-0.575-1.272c0.924-0.78,2.237-1.354,3.776-1.354c2.873,0,4.084,1.97,4.084,3.879
				c0,2.462-1.785,4.453-4.597,7.162l-1.067,0.985v0.041h5.992v1.498H-620.779z"/>
		</g>
		<g class="st1">
			<path class="st2" d="M-605.533,712.335c0,1.759-0.924,2.631-2.002,2.631c-1.04,0-1.938-0.834-1.951-2.515
				c0-1.669,0.911-2.605,2.015-2.605C-606.303,709.846-605.533,710.745-605.533,712.335z M-608.587,712.413
				c-0.025,1.065,0.372,1.874,1.078,1.874c0.744,0,1.078-0.796,1.078-1.899c0-1.014-0.295-1.861-1.078-1.861
				C-608.215,710.526-608.587,711.361-608.587,712.413z M-607.612,718.47l4.902-8.624h0.719l-4.902,8.624H-607.612z
				 M-600.105,715.788c0,1.758-0.924,2.631-1.989,2.631c-1.039,0-1.938-0.834-1.95-2.502c0-1.682,0.911-2.618,2.015-2.618
				C-600.862,713.298-600.105,714.197-600.105,715.788z M-603.159,715.865c-0.013,1.065,0.398,1.874,1.091,1.874
				c0.744,0,1.078-0.796,1.078-1.899c0-1.014-0.295-1.861-1.078-1.861C-602.774,713.978-603.159,714.812-603.159,715.865z"/>
		</g>
	</g>
	<g>
		<g class="st1">
			<path class="st2" d="M-536.854,731.749c-0.37-0.021-0.841,0-1.354,0.082c-2.832,0.472-4.331,2.545-4.638,4.74h0.062
				c0.636-0.841,1.745-1.539,3.222-1.539c2.36,0,4.022,1.704,4.022,4.311c0,2.441-1.663,4.699-4.433,4.699
				c-2.853,0-4.72-2.217-4.72-5.685c0-2.627,0.944-4.7,2.257-6.014c1.108-1.088,2.586-1.765,4.269-1.97
				c0.534-0.082,0.985-0.103,1.313-0.103V731.749z M-537.367,739.446c0-1.909-1.087-3.059-2.75-3.059
				c-1.088,0-2.093,0.678-2.586,1.643c-0.123,0.205-0.205,0.472-0.205,0.8c0.041,2.196,1.046,3.817,2.935,3.817
				C-538.413,742.647-537.367,741.354-537.367,739.446z"/>
		</g>
		<g class="st1">
			<path class="st2" d="M-533.938,743.817v-1.108l1.417-1.375c3.407-3.242,4.946-4.967,4.966-6.978c0-1.354-0.657-2.606-2.647-2.606
				c-1.211,0-2.216,0.615-2.832,1.129l-0.575-1.272c0.923-0.78,2.237-1.354,3.776-1.354c2.873,0,4.084,1.97,4.084,3.879
				c0,2.462-1.786,4.453-4.597,7.162l-1.067,0.985v0.041h5.993v1.498H-533.938z"/>
		</g>
		<g class="st1">
			<path class="st2" d="M-523.657,742.749c0-0.759,0.513-1.293,1.231-1.293c0.718,0,1.21,0.534,1.21,1.293
				c0,0.739-0.472,1.293-1.231,1.293C-523.165,744.042-523.657,743.489-523.657,742.749z"/>
		</g>
		<g class="st1">
			<path class="st2" d="M-516.453,732.16h-0.041l-2.319,1.252l-0.349-1.375l2.915-1.56h1.539v13.34h-1.745V732.16z"/>
		</g>
		<g class="st1">
			<path class="st2" d="M-505.105,732.693c0,1.759-0.924,2.631-2.002,2.631c-1.04,0-1.938-0.834-1.951-2.515
				c0-1.669,0.911-2.605,2.015-2.605C-505.875,730.204-505.105,731.102-505.105,732.693z M-508.16,732.77
				c-0.025,1.065,0.372,1.874,1.078,1.874c0.744,0,1.078-0.796,1.078-1.899c0-1.014-0.295-1.861-1.078-1.861
				C-507.788,730.883-508.16,731.718-508.16,732.77z M-507.184,738.828l4.902-8.624h0.719l-4.902,8.624H-507.184z M-499.677,736.145
				c0,1.758-0.924,2.631-1.989,2.631c-1.039,0-1.938-0.834-1.95-2.502c0-1.682,0.911-2.618,2.015-2.618
				C-500.435,733.656-499.677,734.554-499.677,736.145z M-502.731,736.222c-0.013,1.065,0.398,1.874,1.091,1.874
				c0.744,0,1.078-0.796,1.078-1.899c0-1.014-0.295-1.861-1.078-1.861C-502.346,734.335-502.731,735.169-502.731,736.222z"/>
		</g>
	</g>
	<g>
		<g class="st1">
			<path class="st2" d="M-431.13,704.674v1.19l-5.808,12.149h-1.868l5.788-11.801v-0.041h-6.526v-1.498H-431.13z"/>
			<path class="st2" d="M-428.831,715.941c0.513,0.329,1.704,0.842,2.956,0.842c2.319,0,3.037-1.478,3.017-2.586
				c-0.021-1.867-1.703-2.668-3.448-2.668h-1.006v-1.354h1.006c1.313,0,2.976-0.677,2.976-2.258c0-1.066-0.677-2.011-2.339-2.011
				c-1.067,0-2.093,0.472-2.668,0.882l-0.472-1.313c0.698-0.513,2.052-1.025,3.489-1.025c2.627,0,3.817,1.56,3.817,3.181
				c0,1.375-0.821,2.545-2.463,3.14v0.042c1.642,0.328,2.976,1.56,2.976,3.427c0,2.135-1.663,4.002-4.864,4.002
				c-1.499,0-2.812-0.472-3.469-0.903L-428.831,715.941z"/>
		</g>
		<g class="st1">
			<path class="st2" d="M-419,716.947c0-0.759,0.513-1.293,1.231-1.293s1.211,0.534,1.211,1.293c0,0.739-0.472,1.293-1.231,1.293
				C-418.508,718.24-419,717.686-419,716.947z"/>
		</g>
		<g class="st1">
			<path class="st2" d="M-406.398,704.674v1.19l-5.809,12.149h-1.867l5.787-11.801v-0.041h-6.526v-1.498H-406.398z"/>
		</g>
		<g class="st1">
			<path class="st2" d="M-400.019,706.64c0,1.759-0.924,2.631-2.002,2.631c-1.039,0-1.938-0.834-1.95-2.515
				c0-1.669,0.911-2.605,2.015-2.605C-400.788,704.151-400.019,705.049-400.019,706.64z M-403.072,706.717
				c-0.025,1.065,0.372,1.874,1.078,1.874c0.744,0,1.077-0.796,1.077-1.899c0-1.014-0.295-1.861-1.077-1.861
				C-402.7,704.831-403.072,705.665-403.072,706.717z M-402.097,712.775l4.901-8.624h0.719l-4.902,8.624H-402.097z M-394.59,710.092
				c0,1.758-0.924,2.631-1.989,2.631c-1.039,0-1.938-0.834-1.95-2.502c0-1.682,0.911-2.618,2.015-2.618
				C-395.348,707.603-394.59,708.501-394.59,710.092z M-397.645,710.169c-0.013,1.065,0.398,1.874,1.091,1.874
				c0.744,0,1.078-0.796,1.078-1.899c0-1.014-0.295-1.861-1.078-1.861C-397.259,708.283-397.645,709.117-397.645,710.169z"/>
		</g>
	</g>
	<g>
		<g class="st1">
			<path class="st2" d="M-327.428,714.814c-0.369-0.021-0.841,0-1.354,0.082c-2.832,0.472-4.33,2.545-4.638,4.74h0.062
				c0.636-0.841,1.744-1.539,3.222-1.539c2.36,0,4.022,1.704,4.022,4.311c0,2.441-1.662,4.699-4.433,4.699
				c-2.853,0-4.721-2.217-4.721-5.685c0-2.627,0.944-4.7,2.258-6.014c1.108-1.088,2.586-1.765,4.269-1.97
				c0.534-0.082,0.985-0.103,1.313-0.103V714.814z M-327.94,722.51c0-1.909-1.088-3.059-2.75-3.059
				c-1.088,0-2.094,0.678-2.586,1.643c-0.123,0.205-0.205,0.472-0.205,0.8c0.041,2.196,1.046,3.817,2.935,3.817
				C-328.987,725.711-327.94,724.418-327.94,722.51z"/>
			<path class="st2" d="M-323.466,725.609c0.39,0.041,0.841,0,1.457-0.062c1.047-0.144,2.031-0.574,2.791-1.293
				c0.883-0.801,1.519-1.971,1.765-3.551h-0.062c-0.738,0.903-1.806,1.437-3.14,1.437c-2.401,0-3.94-1.806-3.94-4.084
				c0-2.524,1.826-4.74,4.556-4.74s4.413,2.216,4.413,5.623c0,2.935-0.985,4.987-2.299,6.26c-1.026,1.005-2.442,1.621-3.879,1.785
				c-0.656,0.103-1.231,0.123-1.662,0.103V725.609z M-322.81,717.933c0,1.662,1.006,2.832,2.565,2.832
				c1.211,0,2.155-0.595,2.627-1.396c0.103-0.164,0.164-0.369,0.164-0.656c0-2.278-0.841-4.022-2.729-4.022
				C-321.722,714.691-322.81,716.045-322.81,717.933z"/>
			<path class="st2" d="M-313.84,725.814c0-0.759,0.513-1.293,1.231-1.293c0.718,0,1.21,0.534,1.21,1.293
				c0,0.739-0.472,1.293-1.231,1.293C-313.348,727.107-313.84,726.553-313.84,725.814z"/>
		</g>
		<g class="st1">
			<path class="st2" d="M-310.517,723.495c0-1.683,1.006-2.873,2.647-3.57l-0.021-0.062c-1.478-0.698-2.114-1.848-2.114-2.997
				c0-2.113,1.786-3.55,4.125-3.55c2.586,0,3.879,1.621,3.879,3.283c0,1.129-0.554,2.34-2.195,3.12v0.062
				c1.662,0.656,2.688,1.826,2.688,3.447c0,2.319-1.991,3.879-4.536,3.879C-308.834,727.107-310.517,725.445-310.517,723.495z
				 M-303.334,723.413c0-1.621-1.129-2.4-2.935-2.914c-1.56,0.451-2.401,1.478-2.401,2.75c-0.062,1.354,0.965,2.545,2.668,2.545
				C-304.381,725.793-303.334,724.788-303.334,723.413z M-308.3,716.743c0,1.334,1.005,2.053,2.544,2.463
				c1.149-0.39,2.032-1.211,2.032-2.422c0-1.066-0.636-2.175-2.258-2.175C-307.479,714.609-308.3,715.593-308.3,716.743z"/>
		</g>
		<g class="st1">
			<path class="st2" d="M-295.27,715.506c0,1.759-0.924,2.631-2.002,2.631c-1.039,0-1.938-0.834-1.95-2.515
				c0-1.669,0.911-2.605,2.015-2.605C-296.039,713.017-295.27,713.915-295.27,715.506z M-298.323,715.583
				c-0.025,1.065,0.372,1.874,1.078,1.874c0.744,0,1.077-0.796,1.077-1.899c0-1.014-0.295-1.861-1.077-1.861
				C-297.951,713.697-298.323,714.532-298.323,715.583z M-297.348,721.641l4.901-8.624h0.719l-4.902,8.624H-297.348z
				 M-289.841,718.958c0,1.758-0.924,2.631-1.989,2.631c-1.039,0-1.938-0.834-1.95-2.502c0-1.682,0.911-2.618,2.015-2.618
				C-290.599,716.469-289.841,717.368-289.841,718.958z M-292.895,719.036c-0.013,1.065,0.398,1.874,1.091,1.874
				c0.744,0,1.078-0.796,1.078-1.899c0-1.014-0.295-1.861-1.078-1.861C-292.51,717.149-292.895,717.983-292.895,719.036z"/>
		</g>
	</g>
</g>
<g id="lineaGris">
	<line class="lineaGris" x1="-581.633" y1="783.669" x2="-581.633" y2="891.033"/>
	<line class="lineaGris" x1="-481.267" y1="817.754" x2="-481.267" y2="891.033"/>
	<line class="lineaGris" x1="-376.528" y1="821.139" x2="-376.528" y2="890.965"/>
</g>
<g id="lineaNaranja">
	<line class="lineaNaranja" x1="-623.503" y1="729.042" x2="-623.503" y2="890.965"/>
	<line class="lineaNaranja" x1="-523.139" y1="749.398" x2="-523.139" y2="891.033"/>
	<line class="lineaNaranja" x1="-418.4" y1="723.595" x2="-418.4" y2="891.033"/>
	<line class="lineaNaranja" x1="-313.813" y1="732.462" x2="-313.813" y2="890.965"/>
</g>
</svg>
