<?xml version="1.0" encoding="utf-8"?>
<svg version="1.1" xmlns="http://www.w3.org/2000/svg" xmlns:xlink="http://www.w3.org/1999/xlink" x="0px" y="0px"
	 width="268.202px" height="189.803px" viewBox="0 0 268.202 189.803" style="enable-background:new 0 0 268.202 189.803;"
	 xml:space="preserve">
<style type="text/css">
	.st0{
		fill:#666666;
	}
	.st0{
		fill:transparent;
		-webkit-animation: st0 1s ease-in-out forwards 4.5s;
		-moz-animation: st0 1s ease-in-out forwards 4.5s;
		-o-animation: st0 1s ease-in-out forwards 4.5s
		animation: st0 1s ease-in-out forwards 4.5s;

	}

		@-webkit-keyframes st0 {
			from{fill:transparent}
			to{fill:#666666}
	}

		@keyframes st0 {
			from{fill:transparent}
			to{fill:#666666}
	}

	.st1{
		fill:#FFFFFF;
	}
	.st1{
		fill:transparent;
		-webkit-animation: st1 1s ease-in-out forwards 5.5s;
		-moz-animation: st1 1s ease-in-out forwards 5.5s;
		-o-animation: st1 1s ease-in-out forwards 5.5s
		animation: st1 1s ease-in-out forwards 5.5s;

	}

		@-webkit-keyframes st1 {
			from{fill:transparent}
			to{fill:#FFF}
	}

		@keyframes st1 {
			from{fill:transparent}
			to{fill:#FFF}
	}


	.st2{
		fill:#9A9485;
	}
	.st2{
		fill:transparent;
		-webkit-animation: st2 1s ease-in-out forwards 3.5s;
		-moz-animation: st2 1s ease-in-out forwards 3.5s;
		-o-animation: st2 1s ease-in-out forwards 3.5s
		animation: st2 1s ease-in-out forwards 3.5s;

	}

		@-webkit-keyframes st2 {
			from{fill:transparent}
			to{fill:#9A9485}
	}

		@keyframes st2 {
			from{fill:transparent}
			to{fill:#9A9485}
	}

	.st3{
		fill:#E8500E;
	}
	.st3{
		fill:transparent;
		-webkit-animation: st3 1s ease-in-out forwards 2.5s;
		-moz-animation: st3 1s ease-in-out forwards 2.5s;
		-o-animation: st3 1s ease-in-out forwards 2.5s
		animation: st3 1s ease-in-out forwards 2.5s;

	}

		@-webkit-keyframes st3 {
			from{fill:transparent}
			to{fill:#E8500E}
	}

		@keyframes st3 {
			from{fill:transparent}
			to{fill:#E8500E}
	}
	

	.lineaGris{
		fill:none;
		stroke:transparent;
		stroke-width:1.27;
		stroke-linecap:round;
		stroke-miterlimit:10;
	}
	.lineaGris{
		stroke-dasharray:1000;
		stroke-dashoffset:0;
		-webkit-animation: lineaGris 4s ease-in-out forwards 2.5s;
		-moz-animation: lineaGris 4s ease-in-out forwards 2.5s;
		-o-animation: lineaGris 4s ease-in-out forwards 2.5s;
		animation: lineaGris 4s ease-in-out forwards 2.5s;
	}

	@-webkit-keyframes lineaGris{
		from{
			stroke-dashoffset: 1000;
			stroke:#666666;
		}

		to{
			stroke-dashoffset: 0;
			stroke:#666666;
		}
	}



	.lineaNaranja{
		fill:none;
		stroke:transparent;
		stroke-width:1.27;
		stroke-linecap:round;
		stroke-miterlimit:10;
	}
	.lineaNaranja{
		stroke-dasharray:1000;
		stroke-dashoffset:0;
		-webkit-animation: lineaNaranja 2s ease-in-out forwards 1.5s;
		-moz-animation: lineaNaranja 2s ease-in-out forwards 1.5s;
		-o-animation: lineaNaranja 2s ease-in-out forwards 1.5s;
		animation: lineaNaranja 2s ease-in-out forwards 1.5s;
	}

	@-webkit-keyframes lineaNaranja{
		from{
			stroke-dashoffset: 1000;
			stroke:#F05724;
		}

		to{
			stroke-dashoffset: 0;
			stroke:#F05724;
		}
	}


</style>
<g id="cuadroGris">
	<g id="XMLID_3_">
		<rect id="XMLID_110_" x="14.916" y="130.518" class="st0" width="61.214" height="48.548"/>
		<g id="XMLID_440_">
			<path id="XMLID_441_" class="st1" d="M37.462,141.567c-0.64-0.038-1.318,0-2.223,0.076c-5.086,0.414-7.346,3.014-7.987,5.877
				h0.113c1.206-1.243,2.901-1.959,5.199-1.959c4.106,0,7.572,2.901,7.572,7.987c0,4.86-3.729,8.854-9.042,8.854
				c-6.518,0-9.72-4.86-9.72-10.7c0-4.596,1.695-8.439,4.333-10.888c2.449-2.223,5.613-3.428,9.456-3.617
				c1.055-0.075,1.733-0.075,2.298-0.038V141.567z M34.335,153.849c0-2.26-1.206-4.219-3.654-4.219
				c-1.544,0-2.825,0.942-3.391,2.185c-0.15,0.301-0.226,0.753-0.226,1.432c0.113,2.6,1.356,4.935,3.956,4.935
				C33.054,158.182,34.335,156.336,34.335,153.849z"/>
			<path id="XMLID_444_" class="st1" d="M41.228,166.47c1.168-3.353,2.185-7.271,2.713-10.7l5.839-0.376
				c-1.243,3.843-2.938,7.798-4.747,10.737L41.228,166.47z"/>
			<path id="XMLID_446_" class="st1" d="M53.547,156.374c1.017,0.527,3.353,1.507,5.688,1.507c2.977,0,4.483-1.432,4.483-3.278
				c0-2.411-2.411-3.503-4.935-3.503h-2.336v-4.106h2.223c1.921-0.038,4.37-0.753,4.37-2.826c0-1.469-1.206-2.562-3.617-2.562
				c-1.997,0-4.106,0.867-5.124,1.47l-1.168-4.145c1.469-0.942,4.408-1.846,7.572-1.846c5.237,0,8.138,2.75,8.138,6.103
				c0,2.6-1.469,4.634-4.483,5.689v0.075c2.938,0.527,5.312,2.75,5.312,5.953c0,4.333-3.805,7.497-10.021,7.497
				c-3.165,0-5.839-0.829-7.271-1.733L53.547,156.374z"/>
		</g>
		<g id="XMLID_323_">
			<path id="XMLID_324_" class="st1" d="M34.523,172.663c0-0.516-0.017-0.955-0.034-1.319h1.082l0.059,0.558h0.025
				c0.178-0.262,0.541-0.651,1.251-0.651c0.533,0,0.955,0.271,1.133,0.702h0.017c0.152-0.211,0.338-0.38,0.532-0.499
				c0.229-0.135,0.482-0.203,0.786-0.203c0.795,0,1.395,0.558,1.395,1.792v2.435h-1.251v-2.249c0-0.6-0.194-0.947-0.609-0.947
				c-0.296,0-0.507,0.203-0.592,0.448c-0.034,0.093-0.05,0.229-0.05,0.33v2.417h-1.251v-2.316c0-0.524-0.186-0.879-0.592-0.879
				c-0.33,0-0.524,0.253-0.6,0.465c-0.042,0.102-0.051,0.22-0.051,0.321v2.409h-1.251V172.663z"/>
			<path id="XMLID_326_" class="st1" d="M42.6,173.821c0.042,0.532,0.566,0.786,1.167,0.786c0.439,0,0.794-0.059,1.141-0.169
				l0.169,0.871c-0.422,0.169-0.938,0.253-1.496,0.253c-1.403,0-2.207-0.812-2.207-2.105c0-1.048,0.651-2.206,2.088-2.206
				c1.335,0,1.843,1.04,1.843,2.062c0,0.22-0.025,0.414-0.042,0.507H42.6z M44.113,172.942c0-0.312-0.135-0.837-0.727-0.837
				c-0.541,0-0.761,0.49-0.795,0.837H44.113z"/>
			<path id="XMLID_329_" class="st1" d="M45.886,174.354c0.237,0.144,0.727,0.313,1.107,0.313c0.389,0,0.549-0.135,0.549-0.347
				s-0.127-0.312-0.608-0.473c-0.854-0.288-1.184-0.752-1.175-1.243c0-0.77,0.659-1.353,1.682-1.353c0.482,0,0.913,0.11,1.167,0.236
				l-0.228,0.888c-0.186-0.101-0.541-0.236-0.896-0.236c-0.313,0-0.49,0.126-0.49,0.338c0,0.194,0.161,0.296,0.667,0.474
				c0.786,0.271,1.116,0.667,1.125,1.276c0,0.769-0.609,1.335-1.792,1.335c-0.541,0-1.023-0.118-1.336-0.288L45.886,174.354z"/>
			<path id="XMLID_331_" class="st1" d="M50.372,173.821c0.042,0.532,0.566,0.786,1.167,0.786c0.439,0,0.794-0.059,1.141-0.169
				l0.169,0.871c-0.422,0.169-0.938,0.253-1.496,0.253c-1.403,0-2.207-0.812-2.207-2.105c0-1.048,0.651-2.206,2.088-2.206
				c1.336,0,1.843,1.04,1.843,2.062c0,0.22-0.025,0.414-0.042,0.507H50.372z M51.885,172.942c0-0.312-0.135-0.837-0.727-0.837
				c-0.541,0-0.761,0.49-0.795,0.837H51.885z"/>
			<path id="XMLID_334_" class="st1" d="M53.658,174.354c0.236,0.144,0.727,0.313,1.107,0.313c0.389,0,0.549-0.135,0.549-0.347
				s-0.127-0.312-0.609-0.473c-0.854-0.288-1.183-0.752-1.175-1.243c0-0.77,0.659-1.353,1.682-1.353c0.482,0,0.913,0.11,1.167,0.236
				l-0.228,0.888c-0.186-0.101-0.541-0.236-0.896-0.236c-0.313,0-0.49,0.126-0.49,0.338c0,0.194,0.161,0.296,0.667,0.474
				c0.786,0.271,1.116,0.667,1.125,1.276c0,0.769-0.609,1.335-1.792,1.335c-0.541,0-1.023-0.118-1.336-0.288L53.658,174.354z"/>
		</g>
	</g>
</g>
<g id="cuadroMarron">
	<g id="XMLID_1_">
		<rect id="XMLID_139_" x="73.081" y="13.501" class="st2" width="41.982" height="19.338"/>
		<g id="XMLID_421_">
			<path id="XMLID_422_" class="st1" d="M76.851,24.312c0.228,0.119,0.752,0.338,1.276,0.338c0.667,0,1.006-0.321,1.006-0.735
				c0-0.541-0.541-0.786-1.107-0.786h-0.524v-0.921H78c0.431-0.009,0.98-0.169,0.98-0.634c0-0.33-0.271-0.575-0.812-0.575
				c-0.448,0-0.921,0.194-1.149,0.33l-0.262-0.93c0.33-0.211,0.989-0.415,1.699-0.415c1.175,0,1.826,0.617,1.826,1.37
				c0,0.583-0.33,1.04-1.006,1.276v0.017c0.66,0.118,1.192,0.617,1.192,1.335c0,0.972-0.854,1.682-2.249,1.682
				c-0.71,0-1.31-0.186-1.631-0.389L76.851,24.312z"/>
			<path id="XMLID_424_" class="st1" d="M80.796,26.578c0.262-0.752,0.49-1.631,0.608-2.401l1.311-0.084
				c-0.279,0.862-0.66,1.75-1.065,2.409L80.796,26.578z"/>
			<path id="XMLID_426_" class="st1" d="M83.153,25.572v-0.778l0.71-0.642c1.201-1.074,1.784-1.691,1.801-2.333
				c0-0.448-0.271-0.803-0.905-0.803c-0.473,0-0.887,0.236-1.175,0.456l-0.363-0.921c0.414-0.312,1.057-0.566,1.8-0.566
				c1.243,0,1.927,0.727,1.927,1.725c0,0.921-0.667,1.657-1.462,2.367l-0.507,0.422v0.017h2.071v1.057H83.153z"/>
			<path id="XMLID_428_" class="st1" d="M89.354,22.757c0-0.516-0.017-0.955-0.034-1.319h1.082l0.059,0.558h0.025
				c0.177-0.262,0.541-0.651,1.251-0.651c0.533,0,0.956,0.271,1.133,0.702h0.017c0.152-0.211,0.338-0.38,0.532-0.499
				c0.229-0.135,0.482-0.203,0.786-0.203c0.795,0,1.395,0.558,1.395,1.792v2.435H94.35v-2.249c0-0.6-0.194-0.947-0.609-0.947
				c-0.296,0-0.507,0.203-0.592,0.448c-0.034,0.093-0.051,0.229-0.051,0.33v2.417h-1.251v-2.316c0-0.524-0.186-0.879-0.592-0.879
				c-0.33,0-0.524,0.253-0.6,0.465c-0.042,0.102-0.051,0.22-0.051,0.321v2.409h-1.251V22.757z"/>
			<path id="XMLID_430_" class="st1" d="M97.431,23.915c0.042,0.532,0.566,0.786,1.167,0.786c0.439,0,0.794-0.059,1.141-0.169
				l0.169,0.871c-0.422,0.169-0.938,0.253-1.496,0.253c-1.403,0-2.207-0.812-2.207-2.105c0-1.048,0.651-2.206,2.088-2.206
				c1.335,0,1.843,1.04,1.843,2.062c0,0.22-0.025,0.414-0.042,0.507H97.431z M98.944,23.036c0-0.312-0.135-0.837-0.727-0.837
				c-0.541,0-0.761,0.49-0.795,0.837H98.944z"/>
			<path id="XMLID_433_" class="st1" d="M100.716,24.447c0.237,0.144,0.727,0.313,1.107,0.313c0.389,0,0.549-0.135,0.549-0.347
				s-0.127-0.312-0.608-0.473c-0.854-0.288-1.184-0.752-1.175-1.243c0-0.77,0.659-1.353,1.682-1.353c0.482,0,0.913,0.11,1.167,0.236
				l-0.228,0.888c-0.186-0.101-0.541-0.236-0.896-0.236c-0.313,0-0.49,0.126-0.49,0.338c0,0.194,0.161,0.296,0.667,0.474
				c0.786,0.271,1.116,0.667,1.125,1.276c0,0.769-0.609,1.335-1.792,1.335c-0.541,0-1.023-0.118-1.336-0.288L100.716,24.447z"/>
			<path id="XMLID_435_" class="st1" d="M105.203,23.915c0.042,0.532,0.566,0.786,1.167,0.786c0.439,0,0.794-0.059,1.141-0.169
				l0.169,0.871c-0.422,0.169-0.938,0.253-1.496,0.253c-1.403,0-2.207-0.812-2.207-2.105c0-1.048,0.651-2.206,2.088-2.206
				c1.335,0,1.843,1.04,1.843,2.062c0,0.22-0.025,0.414-0.042,0.507H105.203z M106.716,23.036c0-0.312-0.135-0.837-0.727-0.837
				c-0.541,0-0.761,0.49-0.795,0.837H106.716z"/>
			<path id="XMLID_438_" class="st1" d="M108.489,24.447c0.237,0.144,0.727,0.313,1.107,0.313c0.389,0,0.549-0.135,0.549-0.347
				s-0.127-0.312-0.608-0.473c-0.854-0.288-1.184-0.752-1.175-1.243c0-0.77,0.659-1.353,1.682-1.353c0.482,0,0.913,0.11,1.167,0.236
				l-0.228,0.888c-0.186-0.101-0.541-0.236-0.896-0.236c-0.313,0-0.49,0.126-0.49,0.338c0,0.194,0.161,0.296,0.667,0.474
				c0.786,0.271,1.116,0.667,1.125,1.276c0,0.769-0.609,1.335-1.792,1.335c-0.541,0-1.023-0.118-1.336-0.288L108.489,24.447z"/>
		</g>
	</g>
</g>
<g id="cuadroNaranja">
	<g id="XMLID_2_">
		<rect id="XMLID_111_" x="164.286" y="10.038" class="st3" width="78.414" height="48.548"/>
		<g id="XMLID_448_">
			<path id="XMLID_449_" class="st1" d="M181.511,36.838c0.716,0.075,1.356,0.075,2.486,0c1.733-0.113,3.504-0.603,4.822-1.507
				c1.583-1.093,2.637-2.675,3.089-4.521l-0.113-0.038c-1.093,1.13-2.675,1.771-4.898,1.771c-4.144,0-7.647-2.901-7.647-7.648
				c0-4.785,3.843-8.815,9.23-8.815c6.291,0,9.268,4.822,9.268,10.548c0,5.086-1.62,8.816-4.295,11.265
				c-2.335,2.11-5.538,3.278-9.343,3.428c-0.979,0.076-1.959,0.038-2.6,0V36.838z M184.977,24.556c0,2.11,1.13,3.918,3.466,3.918
				c1.544,0,2.637-0.753,3.165-1.62c0.188-0.339,0.301-0.716,0.301-1.432c0-2.599-0.979-5.161-3.579-5.161
				C186.371,20.261,184.94,21.994,184.977,24.556z"/>
			<path id="XMLID_452_" class="st1" d="M199.104,45.465c1.168-3.353,2.185-7.271,2.713-10.7l5.839-0.376
				c-1.243,3.843-2.938,7.798-4.747,10.737L199.104,45.465z"/>
			<path id="XMLID_454_" class="st1" d="M226.757,21.203h-9.493l-0.528,3.768c0.528-0.076,0.979-0.076,1.583-0.076
				c2.336,0,4.709,0.527,6.442,1.771c1.846,1.243,2.976,3.277,2.976,6.141c0,4.559-3.918,8.59-10.511,8.59
				c-2.977,0-5.463-0.678-6.819-1.394l1.018-4.295c1.093,0.527,3.315,1.206,5.538,1.206c2.373,0,4.897-1.13,4.897-3.729
				c0-2.524-1.997-4.069-6.895-4.069c-1.356,0-2.298,0.075-3.315,0.226l1.62-12.847h13.487V21.203z"/>
		</g>
		<g id="XMLID_310_">
			<path id="XMLID_311_" class="st1" d="M192.494,51.282c0-0.516-0.018-0.955-0.034-1.319h1.082l0.06,0.558h0.025
				c0.178-0.262,0.541-0.651,1.251-0.651c0.532,0,0.955,0.271,1.133,0.702h0.017c0.152-0.211,0.338-0.38,0.532-0.499
				c0.229-0.135,0.482-0.203,0.786-0.203c0.795,0,1.396,0.558,1.396,1.792v2.435h-1.251v-2.249c0-0.6-0.194-0.947-0.609-0.947
				c-0.296,0-0.507,0.203-0.592,0.448c-0.033,0.093-0.05,0.229-0.05,0.33v2.417h-1.252v-2.316c0-0.524-0.186-0.879-0.592-0.879
				c-0.329,0-0.523,0.253-0.6,0.465c-0.042,0.102-0.051,0.22-0.051,0.321v2.409h-1.251V51.282z"/>
			<path id="XMLID_313_" class="st1" d="M200.571,52.441c0.042,0.532,0.566,0.786,1.166,0.786c0.439,0,0.795-0.059,1.142-0.169
				l0.169,0.871c-0.423,0.169-0.938,0.253-1.496,0.253c-1.403,0-2.207-0.812-2.207-2.105c0-1.048,0.651-2.206,2.089-2.206
				c1.335,0,1.843,1.04,1.843,2.062c0,0.22-0.025,0.414-0.043,0.507H200.571z M202.083,51.561c0-0.312-0.135-0.837-0.727-0.837
				c-0.541,0-0.761,0.49-0.795,0.837H202.083z"/>
			<path id="XMLID_316_" class="st1" d="M203.856,52.973c0.237,0.144,0.728,0.313,1.107,0.313c0.39,0,0.55-0.135,0.55-0.347
				s-0.127-0.312-0.608-0.473c-0.854-0.288-1.184-0.752-1.176-1.243c0-0.77,0.66-1.353,1.683-1.353c0.482,0,0.913,0.11,1.167,0.236
				l-0.229,0.888c-0.186-0.101-0.541-0.236-0.896-0.236c-0.312,0-0.49,0.126-0.49,0.338c0,0.194,0.161,0.296,0.668,0.474
				c0.786,0.271,1.116,0.667,1.124,1.276c0,0.769-0.608,1.335-1.792,1.335c-0.541,0-1.022-0.118-1.336-0.288L203.856,52.973z"/>
			<path id="XMLID_318_" class="st1" d="M208.343,52.441c0.042,0.532,0.566,0.786,1.166,0.786c0.439,0,0.795-0.059,1.142-0.169
				l0.169,0.871c-0.423,0.169-0.938,0.253-1.496,0.253c-1.403,0-2.206-0.812-2.206-2.105c0-1.048,0.65-2.206,2.088-2.206
				c1.335,0,1.843,1.04,1.843,2.062c0,0.22-0.025,0.414-0.042,0.507H208.343z M209.856,51.561c0-0.312-0.135-0.837-0.727-0.837
				c-0.541,0-0.761,0.49-0.795,0.837H209.856z"/>
			<path id="XMLID_321_" class="st1" d="M211.628,52.973c0.237,0.144,0.728,0.313,1.107,0.313c0.39,0,0.55-0.135,0.55-0.347
				s-0.127-0.312-0.608-0.473c-0.854-0.288-1.184-0.752-1.175-1.243c0-0.77,0.659-1.353,1.682-1.353c0.482,0,0.913,0.11,1.167,0.236
				l-0.229,0.888c-0.186-0.101-0.541-0.236-0.896-0.236c-0.312,0-0.49,0.126-0.49,0.338c0,0.194,0.161,0.296,0.668,0.474
				c0.786,0.271,1.116,0.667,1.124,1.276c0,0.769-0.608,1.335-1.792,1.335c-0.541,0-1.022-0.118-1.335-0.288L211.628,52.973z"/>
		</g>
	</g>
</g>
<g id="lineaGris">
	<polyline id="XMLID_101_" class="lineaGris" points="0.669,0.666 4.893,0.666 4.893,2.25 7.005,2.25 7.005,3.306 10.878,3.306 
		10.878,5.067 13.869,5.067 13.869,6.826 13.869,9.291 14.925,9.291 14.925,10.875 14.925,12.987 16.333,12.987 16.333,15.378 
		17.917,15.378 17.917,18.09 21.789,18.09 21.789,19.674 25.134,19.674 25.134,22.138 31.47,22.138 31.47,23.547 32.701,23.547 
		32.701,25.306 33.582,25.306 33.582,27.771 33.582,29.825 33.582,30.763 35.341,30.763 35.341,33.403 36.574,33.403 36.574,34.81 
		46.782,34.81 46.782,38.506 48.718,38.506 48.718,42.379 49.774,42.379 49.774,44.314 50.478,44.314 50.478,46.426 51.358,46.426 
		51.358,50.299 52.414,50.299 52.414,52.234 55.23,52.234 55.23,53.818 58.573,53.818 58.573,55.228 60.334,55.228 60.334,56.635 
		61.741,56.635 61.741,58.57 63.502,58.57 63.502,59.452 64.735,59.452 64.735,67.195 64.735,68.428 64.735,70.187 65.791,70.187 
		65.791,73.681 65.791,74.411 67.021,74.411 67.021,79.74 68.254,79.74 68.254,83.387 69.133,83.387 69.133,89.548 71.422,89.548 
		71.422,93.067 72.478,93.067 72.478,95.533 76.174,95.533 76.174,97.82 78.814,97.82 78.814,99.757 80.398,99.757 80.398,101.516 
		81.454,101.516 81.454,104.86 82.51,104.86 82.51,107.5 83.215,107.5 83.215,111.373 84.446,111.373 84.446,113.809 
		86.206,113.809 86.206,115.948 87.262,115.948 87.262,118.765 89.551,118.765 89.551,121.052 90.607,121.052 90.607,123.341 
		92.014,123.341 92.014,127.037 97.471,127.037 97.471,130.028 98.702,130.028 98.702,132.845 99.406,132.845 99.406,136.541 
		100.462,136.541 100.462,139.355 101.518,139.355 101.518,144.987 102.574,144.987 102.574,147.452 103.63,147.452 103.63,150.972 
		106.094,150.972 106.094,152.909 109.087,152.909 109.087,154.316 115.07,154.316 115.07,156.175 117.007,156.175 117.007,158.892 
		117.799,159.684 117.799,161.532 120.175,161.532 120.175,164.58 123.518,164.58 123.518,165.581 134.078,165.581 134.078,168.572 
		135.134,168.572 135.134,170.685 138.479,170.685 138.479,172.62 140.24,172.62 140.24,174.557 155.199,174.557 155.199,177.725 
		169.63,177.725 169.63,181.07 183.358,181.07 183.358,185.294 206.372,185.294 206.372,189.165 247.39,189.165 	"/>
</g>
<g id="lineaNaranja">
	<polyline id="XMLID_42_" class="lineaNaranja" points="0.669,0.666 14.572,0.666 14.572,1.899 15.979,1.899 15.979,3.306 16.861,3.306 
		16.861,7.002 25.484,7.002 25.484,9.819 26.716,9.819 26.716,11.226 28.828,11.226 28.828,12.81 30.589,12.81 30.589,15.454 
		31.82,15.454 31.82,18.97 32.876,18.97 32.876,22.138 33.757,22.138 33.757,26.715 42.38,26.715 42.38,28.827 44.492,28.827 
		44.492,32.347 47.66,32.347 47.66,36.571 49.42,36.571 49.42,41.523 54.701,41.523 54.701,43.786 59.453,43.786 59.453,45.898 
		64.909,45.898 64.909,46.954 66.845,46.954 66.845,54.172 68.957,54.172 68.957,55.579 69.836,55.579 69.836,57.163 72.125,57.163 
		72.125,58.042 79.694,58.042 79.694,60.508 80.924,60.508 80.924,62.443 82.157,62.443 82.157,64.906 83.39,64.906 83.39,66.844 
		83.39,73.003 84.797,73.003 84.797,77.404 85.853,77.404 85.853,79.74 98.174,79.74 98.174,83.035 99.758,83.035 99.758,85.147 
		101.165,85.147 101.165,88.492 102.749,88.492 102.749,89.899 110.669,89.899 110.669,91.483 114.365,91.483 114.365,92.891 
		115.598,92.891 115.598,96.059 115.598,97.468 117.182,97.468 117.182,100.636 118.413,100.636 118.413,105.74 132.494,105.74 
		132.494,109.084 134.43,109.084 134.43,111.196 136.19,111.196 136.19,112.78 136.19,115.067 139.005,115.067 139.005,117.958 
		140.589,117.958 140.589,119.996 146.574,119.996 146.574,121.931 148.334,121.931 148.334,124.748 149.565,124.748 
		149.565,127.388 150.798,127.388 150.798,131.084 151.677,131.084 151.677,133.724 152.91,133.724 152.91,136.013 165.582,136.013 
		165.582,141.644 167.694,141.644 167.694,144.987 169.102,144.987 169.102,148.86 170.334,148.86 170.334,154.668 184.767,154.668 
		184.767,158.012 203.775,158.012 203.775,164.58 205.183,164.58 205.183,168.396 207.118,168.396 207.118,171.389 216.799,171.389 
		216.799,175.788 218.031,175.788 218.031,178.781 219.79,178.781 219.79,182.301 253.055,182.301 253.055,185.645 267.568,185.645 
			"/>
</g>
</svg>
