<?xml version="1.0" encoding="utf-8"?>
<svg version="1.1" xmlns="http://www.w3.org/2000/svg" xmlns:xlink="http://www.w3.org/1999/xlink" x="0px" y="0px"
	 width="206.975px" height="321.111px" viewBox="0 0 206.975 321.111" style="enable-background:new 0 0 206.975 321.111;"
	 xml:space="preserve">
<style type="text/css">
	.st0{
		fill:#E0E1E2;
	}

	.st0{
		fill:transparent;
		-webkit-animation: st0 1s ease-in-out forwards 0.5s;
		-moz-animation: st0 1s ease-in-out forwards 0.5s;
		-o-animation: st0 1s ease-in-out forwards 0.5s
		animation: st0 1s ease-in-out forwards 0.5s;

	}

		@-webkit-keyframes st0 {
			from{fill:transparent}
			to{fill:#E0E1E2}
	}

		@keyframes st0 {
			from{fill:transparent}
			to{fill:#E0E1E2}
	}


	.st1{
		fill:#BBB0A6;
	}

	.st1{
		fill:transparent;
		-webkit-animation: st1 1s ease-in-out forwards 2.5s;
		-moz-animation: st1 1s ease-in-out forwards 2.5s;
		-o-animation: st1 1s ease-in-out forwards 2.5s
		animation: st1 1s ease-in-out forwards 2.5s;

	}

		@-webkit-keyframes st1 {
			from{fill:transparent}
			to{fill:#BBB0A6}
	}

		@keyframes st1 {
			from{fill:transparent}
			to{fill:#BBB0A6}
	}


	.st2{
		fill:#E8500E;
	}

	.st2{
		fill:transparent;
		-webkit-animation: st2 1s ease-in-out forwards 1.5s;
		-moz-animation: st2 1s ease-in-out forwards 1.5s;
		-o-animation: st2 1s ease-in-out forwards 1.5s
		animation: st2 1s ease-in-out forwards 1.5s;

	}

		@-webkit-keyframes st2 {
			from{fill:transparent}
			to{fill:#E8500E}
	}

		@keyframes st2 {
			from{fill:transparent}
			to{fill:#E8500E}
	}

</style>
<g id="gris">
	<path id="XMLID_70_" class="st0" d="M0,285.359v-4.349V285.359z"/>
	<g id="XMLID_1153_">
		<path id="XMLID_1154_" class="st1" d="M110.73,17.167c-0.218,0.108-0.707,0.225-1.344,0.225c-1.81,0-2.742-1.126-2.742-2.617
			c0-1.787,1.274-2.781,2.858-2.781c0.613,0,1.08,0.125,1.289,0.233l-0.24,0.94c-0.241-0.101-0.575-0.194-0.994-0.194
			c-0.94,0-1.67,0.567-1.67,1.732c0,1.048,0.621,1.708,1.678,1.708c0.357,0,0.753-0.078,0.986-0.171L110.73,17.167z"/>
		<path id="XMLID_1156_" class="st1" d="M112.727,15.971l-0.373,1.344h-1.228l1.601-5.235h1.553l1.623,5.235h-1.273l-0.403-1.344
			H112.727z M114.055,15.086l-0.327-1.111c-0.093-0.311-0.186-0.699-0.264-1.01h-0.016c-0.077,0.311-0.155,0.707-0.24,1.01
			l-0.311,1.111H114.055z"/>
		<path id="XMLID_1159_" class="st1" d="M116.604,12.15c0.381-0.062,0.947-0.108,1.576-0.108c0.777,0,1.32,0.116,1.693,0.412
			c0.311,0.249,0.481,0.613,0.481,1.095c0,0.668-0.474,1.126-0.924,1.29v0.023c0.365,0.147,0.566,0.497,0.699,0.979
			c0.163,0.59,0.326,1.273,0.427,1.476h-1.212c-0.085-0.147-0.209-0.575-0.364-1.219c-0.141-0.652-0.365-0.831-0.847-0.839h-0.357
			v2.058h-1.173V12.15z M117.777,14.402h0.466c0.59,0,0.939-0.295,0.939-0.753c0-0.481-0.326-0.722-0.869-0.73
			c-0.288,0-0.451,0.023-0.536,0.039V14.402z"/>
		<path id="XMLID_1162_" class="st1" d="M121.211,12.15c0.311-0.062,0.939-0.108,1.53-0.108c0.722,0,1.165,0.07,1.545,0.295
			c0.365,0.194,0.63,0.551,0.63,1.025c0,0.466-0.272,0.901-0.862,1.118v0.016c0.598,0.163,1.04,0.614,1.04,1.289
			c0,0.474-0.217,0.847-0.543,1.111c-0.381,0.303-1.018,0.474-2.059,0.474c-0.582,0-1.018-0.039-1.281-0.078V12.15z M122.384,14.154
			h0.388c0.622,0,0.956-0.256,0.956-0.645c0-0.396-0.303-0.606-0.839-0.606c-0.257,0-0.404,0.016-0.505,0.031V14.154z
			 M122.384,16.476c0.116,0.016,0.256,0.016,0.458,0.016c0.536,0,1.01-0.202,1.01-0.753c0-0.528-0.474-0.738-1.064-0.738h-0.403
			V16.476z"/>
		<path id="XMLID_1166_" class="st1" d="M130.695,14.643c0,1.717-1.041,2.757-2.57,2.757c-1.554,0-2.463-1.173-2.463-2.664
			c0-1.569,1.002-2.742,2.548-2.742C129.817,11.994,130.695,13.199,130.695,14.643z M126.913,14.713
			c0,1.025,0.481,1.748,1.273,1.748c0.8,0,1.259-0.761,1.259-1.778c0-0.94-0.451-1.748-1.267-1.748
			C127.379,12.934,126.913,13.696,126.913,14.713z"/>
		<path id="XMLID_1169_" class="st1" d="M131.473,12.15c0.365-0.062,0.878-0.108,1.6-0.108c0.73,0,1.251,0.14,1.601,0.419
			c0.334,0.264,0.559,0.699,0.559,1.211s-0.171,0.948-0.481,1.243c-0.403,0.38-1.002,0.551-1.701,0.551
			c-0.155,0-0.295-0.008-0.403-0.023v1.872h-1.173V12.15z M132.646,14.527c0.101,0.023,0.225,0.031,0.396,0.031
			c0.63,0,1.018-0.318,1.018-0.854c0-0.482-0.334-0.769-0.924-0.769c-0.241,0-0.404,0.023-0.489,0.046V14.527z"/>
		<path id="XMLID_1172_" class="st1" d="M135.987,12.08h1.188v4.241h2.081v0.994h-3.27V12.08z"/>
		<path id="XMLID_1174_" class="st1" d="M141.177,15.971l-0.373,1.344h-1.228l1.601-5.235h1.553l1.623,5.235h-1.273l-0.403-1.344
			H141.177z M142.505,15.086l-0.327-1.111c-0.093-0.311-0.186-0.699-0.264-1.01h-0.016c-0.077,0.311-0.155,0.707-0.24,1.01
			l-0.311,1.111H142.505z"/>
		<path id="XMLID_1177_" class="st1" d="M146.062,13.074h-1.406V12.08h4.023v0.994h-1.429v4.241h-1.188V13.074z"/>
		<path id="XMLID_1179_" class="st1" d="M150.499,12.08v5.235h-1.188V12.08H150.499z"/>
		<path id="XMLID_1181_" class="st1" d="M151.524,17.315V12.08h1.383l1.087,1.918c0.311,0.551,0.621,1.204,0.854,1.794h0.023
			c-0.078-0.691-0.102-1.398-0.102-2.182v-1.53h1.088v5.235h-1.243l-1.118-2.02c-0.311-0.559-0.652-1.235-0.909-1.848l-0.022,0.008
			c0.03,0.691,0.046,1.429,0.046,2.283v1.577H151.524z"/>
		<path id="XMLID_1183_" class="st1" d="M161.677,14.643c0,1.717-1.041,2.757-2.571,2.757c-1.553,0-2.462-1.173-2.462-2.664
			c0-1.569,1.002-2.742,2.548-2.742C160.799,11.994,161.677,13.199,161.677,14.643z M157.894,14.713
			c0,1.025,0.481,1.748,1.273,1.748c0.8,0,1.259-0.761,1.259-1.778c0-0.94-0.451-1.748-1.267-1.748
			C158.36,12.934,157.894,13.696,157.894,14.713z"/>
		<path id="XMLID_1186_" class="st1" d="M162.066,17.625l1.662-5.631h0.784l-1.661,5.631H162.066z"/>
		<path id="XMLID_1188_" class="st1" d="M165.026,12.15c0.365-0.062,0.878-0.108,1.6-0.108c0.73,0,1.251,0.14,1.601,0.419
			c0.334,0.264,0.559,0.699,0.559,1.211s-0.171,0.948-0.481,1.243c-0.403,0.38-1.002,0.551-1.701,0.551
			c-0.155,0-0.295-0.008-0.403-0.023v1.872h-1.173V12.15z M166.199,14.527c0.101,0.023,0.225,0.031,0.396,0.031
			c0.63,0,1.018-0.318,1.018-0.854c0-0.482-0.334-0.769-0.924-0.769c-0.241,0-0.404,0.023-0.489,0.046V14.527z"/>
		<path id="XMLID_1191_" class="st1" d="M170.76,15.971l-0.373,1.344h-1.228l1.601-5.235h1.553l1.623,5.235h-1.273l-0.404-1.344
			H170.76z M172.088,15.086l-0.326-1.111c-0.094-0.311-0.187-0.699-0.265-1.01h-0.016c-0.077,0.311-0.155,0.707-0.24,1.01
			l-0.311,1.111H172.088z"/>
		<path id="XMLID_1194_" class="st1" d="M178.48,17.167c-0.218,0.108-0.707,0.225-1.344,0.225c-1.81,0-2.742-1.126-2.742-2.617
			c0-1.787,1.274-2.781,2.858-2.781c0.613,0,1.08,0.125,1.289,0.233l-0.24,0.94c-0.241-0.101-0.575-0.194-0.994-0.194
			c-0.94,0-1.67,0.567-1.67,1.732c0,1.048,0.621,1.708,1.678,1.708c0.357,0,0.753-0.078,0.986-0.171L178.48,17.167z"/>
		<path id="XMLID_1196_" class="st1" d="M179.258,12.08h1.188v4.241h2.081v0.994h-3.27V12.08z"/>
		<path id="XMLID_1198_" class="st1" d="M184.416,12.08v5.235h-1.188V12.08H184.416z"/>
		<path id="XMLID_1200_" class="st1" d="M186.452,13.074h-1.406V12.08h4.023v0.994h-1.429v4.241h-1.188V13.074z"/>
		<path id="XMLID_1202_" class="st1" d="M190.919,15.971l-0.373,1.344h-1.228l1.601-5.235h1.553l1.623,5.235h-1.273l-0.403-1.344
			H190.919z M192.247,15.086l-0.327-1.111c-0.093-0.311-0.186-0.699-0.264-1.01h-0.016c-0.077,0.311-0.155,0.707-0.24,1.01
			l-0.311,1.111H192.247z"/>
		<path id="XMLID_1205_" class="st1" d="M197.552,17.315l-0.474-0.948c-0.194-0.365-0.318-0.637-0.466-0.939h-0.016
			c-0.108,0.303-0.241,0.575-0.404,0.939l-0.435,0.948h-1.352l1.515-2.648l-1.46-2.586h1.359l0.458,0.956
			c0.155,0.318,0.271,0.575,0.396,0.87h0.015c0.125-0.334,0.226-0.567,0.357-0.87l0.443-0.956h1.351l-1.476,2.555l1.554,2.68
			H197.552z"/>
		<path id="XMLID_1207_" class="st1" d="M202.672,15.101h-1.926v1.243h2.151v0.971h-3.34V12.08h3.23v0.971h-2.042v1.087h1.926
			V15.101z"/>
		<path id="XMLID_1209_" class="st1" d="M203.706,12.08h1.188v4.241h2.081v0.994h-3.27V12.08z"/>
		<path id="XMLID_1211_" class="st1" d="M108.548,21.271c-0.442,0.714-0.784,1.755-0.784,3.146c0,1.367,0.35,2.4,0.784,3.122h-0.823
			c-0.42-0.598-0.886-1.631-0.886-3.13c0.008-1.507,0.466-2.532,0.886-3.138H108.548z"/>
		<path id="XMLID_1213_" class="st1" d="M108.913,26.637l0.481-2.563c0.094-0.481,0.156-0.901,0.202-1.235h0.994l-0.077,0.629h0.016
			c0.356-0.497,0.831-0.714,1.336-0.714c0.621,0,0.971,0.38,0.971,1.033c0,0.171-0.031,0.458-0.062,0.645l-0.419,2.206h-1.119
			l0.396-2.105c0.023-0.132,0.039-0.287,0.039-0.427c0-0.264-0.094-0.451-0.373-0.451c-0.365,0-0.792,0.458-0.947,1.297
			l-0.318,1.686H108.913z"/>
		<path id="XMLID_1215_" class="st1" d="M115.065,24.113v-0.722h4.008v0.722H115.065z M115.065,25.721v-0.722h4.008v0.722H115.065z"
			/>
		<path id="XMLID_1218_" class="st1" d="M124.652,22.56h-1.957l-0.109,0.777c0.109-0.016,0.202-0.016,0.326-0.016
			c0.481,0,0.971,0.109,1.328,0.365c0.381,0.256,0.613,0.675,0.613,1.266c0,0.94-0.808,1.771-2.166,1.771
			c-0.614,0-1.127-0.14-1.406-0.288l0.21-0.885c0.225,0.109,0.684,0.249,1.142,0.249c0.489,0,1.01-0.233,1.01-0.769
			c0-0.52-0.412-0.838-1.422-0.838c-0.279,0-0.474,0.015-0.684,0.046l0.334-2.648h2.781V22.56z"/>
		<path id="XMLID_1220_" class="st1" d="M125.515,25.317c0-0.606,0.349-1.025,0.9-1.266v-0.023c-0.489-0.248-0.73-0.66-0.73-1.103
			c0-0.854,0.77-1.421,1.779-1.421c1.181,0,1.67,0.684,1.67,1.297c0,0.435-0.233,0.862-0.73,1.111v0.023
			c0.489,0.186,0.924,0.605,0.924,1.258c0,0.917-0.769,1.53-1.941,1.53C126.105,26.723,125.515,26.001,125.515,25.317z
			 M128.125,25.278c0-0.442-0.326-0.707-0.792-0.831c-0.389,0.109-0.614,0.389-0.614,0.753c-0.008,0.365,0.272,0.707,0.715,0.707
			C127.852,25.908,128.125,25.636,128.125,25.278z M126.797,22.886c0,0.342,0.311,0.56,0.714,0.684
			c0.272-0.078,0.513-0.326,0.513-0.645c0-0.311-0.179-0.622-0.613-0.622C127.006,22.304,126.797,22.568,126.797,22.886z"/>
		<path id="XMLID_1224_" class="st1" d="M130.277,25.783c0.147,0.016,0.279,0.016,0.513,0c0.357-0.023,0.722-0.124,0.994-0.311
			c0.326-0.225,0.543-0.551,0.637-0.932l-0.023-0.008c-0.226,0.233-0.552,0.365-1.01,0.365c-0.854,0-1.576-0.598-1.576-1.577
			c0-0.986,0.792-1.817,1.902-1.817c1.297,0,1.911,0.994,1.911,2.175c0,1.048-0.334,1.817-0.886,2.322
			c-0.481,0.435-1.142,0.676-1.926,0.707c-0.202,0.016-0.404,0.008-0.536,0V25.783z M130.991,23.251
			c0,0.435,0.233,0.808,0.715,0.808c0.318,0,0.544-0.155,0.652-0.334c0.039-0.07,0.062-0.147,0.062-0.295
			c0-0.536-0.202-1.064-0.738-1.064C131.279,22.366,130.984,22.723,130.991,23.251z"/>
		<path id="XMLID_1227_" class="st1" d="M134.161,27.538c0.428-0.714,0.785-1.763,0.785-3.138s-0.35-2.408-0.785-3.13h0.823
			c0.412,0.598,0.886,1.615,0.886,3.13c-0.008,1.515-0.474,2.532-0.886,3.138H134.161z"/>
	</g>
	<rect id="XMLID_65_" x="94.034" y="11.804" class="st1" width="6.476" height="5.516"/>
	<rect id="XMLID_64_" y="171.705" class="st1" width="114.614" height="4.349"/>
	<rect id="XMLID_63_" y="38.971" class="st1" width="10.762" height="4.348"/>
	<rect id="XMLID_61_" y="51.046" class="st1" width="7.803" height="4.348"/>
	<rect id="XMLID_59_" y="63.13" class="st1" width="33.9" height="4.348"/>
	<rect id="XMLID_57_" y="75.205" class="st1" width="157.127" height="4.348"/>
	<rect id="XMLID_55_" y="99.361" class="st1" width="58.384" height="4.348"/>
	<rect id="XMLID_53_" y="111.435" class="st1" width="23.407" height="4.348"/>
	<rect id="XMLID_51_" y="123.516" class="st1" width="119.19" height="4.348"/>
	<rect id="XMLID_49_" y="135.59" class="st1" width="89.593" height="4.348"/>
	<rect id="XMLID_47_" y="147.672" class="st1" width="79.101" height="4.348"/>
	<rect id="XMLID_44_" y="196.955" class="st1" width="118.383" height="4.35"/>
	<rect id="XMLID_42_" y="209.033" class="st1" width="188.067" height="4.349"/>
	<rect id="XMLID_39_" y="256.373" class="st1" width="85.02" height="4.349"/>
	<rect id="XMLID_38_" y="252.027" class="st2" width="20.716" height="4.35"/>
	<rect id="XMLID_37_" y="268.451" class="st1" width="51.657" height="4.35"/>
	<rect id="XMLID_36_" y="264.102" class="st2" width="17.219" height="4.349"/>
	<rect id="XMLID_35_" y="292.607" class="st1" width="180.534" height="4.35"/>
	<rect id="XMLID_34_" y="288.258" class="st2" width="9.955" height="4.349"/>
	<rect id="XMLID_33_" y="304.687" class="st1" width="28.519" height="4.349"/>
	<rect id="XMLID_32_" y="300.337" class="st2" width="5.919" height="4.35"/>
	<rect id="XMLID_31_" y="316.762" class="st1" width="94.168" height="4.35"/>
	<rect id="XMLID_30_" y="312.416" class="st2" width="4.036" height="4.349"/>
</g>
<g id="naranja">
	<g id="XMLID_1229_">
		<path id="XMLID_1230_" class="st2" d="M108.074,0.279v5.235h-1.188V0.279H108.074z"/>
		<path id="XMLID_1232_" class="st2" d="M109.099,0.349c0.381-0.062,0.947-0.108,1.576-0.108c0.777,0,1.32,0.116,1.693,0.412
			c0.311,0.249,0.481,0.613,0.481,1.095c0,0.668-0.474,1.126-0.924,1.29V3.06c0.365,0.147,0.566,0.497,0.699,0.979
			c0.163,0.59,0.326,1.273,0.427,1.476h-1.212c-0.085-0.147-0.209-0.575-0.364-1.219c-0.141-0.652-0.365-0.831-0.847-0.839h-0.357
			v2.058h-1.173V0.349z M110.272,2.601h0.466c0.59,0,0.939-0.295,0.939-0.753c0-0.481-0.326-0.722-0.869-0.73
			c-0.288,0-0.451,0.023-0.536,0.039V2.601z"/>
		<path id="XMLID_1235_" class="st2" d="M116.82,3.301h-1.926v1.243h2.151v0.971h-3.34V0.279h3.23V1.25h-2.042v1.087h1.926V3.301z"
			/>
		<path id="XMLID_1237_" class="st2" d="M117.894,4.295c0.318,0.163,0.808,0.326,1.312,0.326c0.543,0,0.831-0.225,0.831-0.567
			c0-0.326-0.249-0.513-0.878-0.738c-0.87-0.303-1.437-0.785-1.437-1.546c0-0.893,0.745-1.577,1.98-1.577
			c0.59,0,1.025,0.125,1.336,0.264l-0.265,0.956c-0.209-0.101-0.582-0.249-1.095-0.249s-0.762,0.233-0.762,0.505
			c0,0.334,0.296,0.482,0.972,0.738c0.924,0.341,1.358,0.823,1.358,1.561c0,0.877-0.675,1.623-2.112,1.623
			c-0.598,0-1.188-0.155-1.483-0.318L117.894,4.295z"/>
		<path id="XMLID_1239_" class="st2" d="M122.089,4.295c0.318,0.163,0.808,0.326,1.312,0.326c0.543,0,0.831-0.225,0.831-0.567
			c0-0.326-0.249-0.513-0.878-0.738c-0.87-0.303-1.437-0.785-1.437-1.546c0-0.893,0.745-1.577,1.98-1.577
			c0.59,0,1.025,0.125,1.336,0.264l-0.265,0.956c-0.209-0.101-0.582-0.249-1.095-0.249s-0.762,0.233-0.762,0.505
			c0,0.334,0.296,0.482,0.972,0.738c0.924,0.341,1.358,0.823,1.358,1.561c0,0.877-0.676,1.623-2.112,1.623
			c-0.598,0-1.188-0.155-1.483-0.318L122.089,4.295z"/>
		<path id="XMLID_1241_" class="st2" d="M127.465,4.17l-0.373,1.344h-1.228l1.601-5.235h1.553l1.623,5.235h-1.273l-0.404-1.344
			H127.465z M128.793,3.285l-0.326-1.111c-0.094-0.311-0.187-0.699-0.265-1.01h-0.016c-0.077,0.311-0.155,0.707-0.24,1.01
			l-0.311,1.111H128.793z"/>
		<path id="XMLID_1244_" class="st2" d="M133.99,1.53c0,0.746-0.605,1.344-1.375,1.344c-0.769,0-1.382-0.598-1.382-1.344
			c0-0.738,0.613-1.336,1.382-1.336C133.385,0.194,133.99,0.792,133.99,1.53z M131.644,1.537c0,0.559,0.412,1.002,0.971,1.002
			c0.56,0,0.971-0.443,0.971-1.01c0-0.551-0.411-1.002-0.979-1.002C132.056,0.528,131.644,0.978,131.644,1.537z M132.444,2.166
			h-0.38V0.931c0.085-0.015,0.287-0.039,0.543-0.039c0.28,0,0.404,0.039,0.497,0.093c0.078,0.054,0.132,0.147,0.132,0.271
			c0,0.125-0.116,0.233-0.287,0.28v0.016c0.14,0.046,0.218,0.14,0.257,0.318c0.038,0.179,0.062,0.249,0.085,0.295h-0.427
			c-0.039-0.046-0.062-0.155-0.086-0.264c-0.023-0.125-0.085-0.187-0.21-0.187h-0.124V2.166z M132.46,1.46h0.108
			c0.141,0,0.233-0.054,0.233-0.147c0-0.101-0.085-0.155-0.218-0.155c-0.046,0-0.093,0.007-0.124,0.007V1.46z"/>
		<path id="XMLID_1249_" class="st2" d="M138.138,0.147c-0.442,0.714-0.784,1.755-0.784,3.146c0,1.367,0.349,2.4,0.784,3.122h-0.823
			c-0.42-0.598-0.886-1.631-0.886-3.13c0.008-1.507,0.466-2.532,0.886-3.138H138.138z"/>
		<path id="XMLID_1251_" class="st2" d="M138.504,5.514l0.481-2.563c0.094-0.481,0.156-0.901,0.202-1.235h0.994l-0.077,0.629h0.016
			c0.356-0.497,0.831-0.714,1.336-0.714c0.621,0,0.971,0.38,0.971,1.033c0,0.171-0.031,0.458-0.062,0.645l-0.419,2.206h-1.119
			l0.396-2.105c0.023-0.132,0.039-0.287,0.039-0.427c0-0.264-0.094-0.451-0.373-0.451c-0.365,0-0.792,0.458-0.947,1.297
			l-0.318,1.686H138.504z"/>
		<path id="XMLID_1253_" class="st2" d="M144.656,2.99V2.267h4.008V2.99H144.656z M144.656,4.597V3.875h4.008v0.722H144.656z"/>
		<path id="XMLID_1256_" class="st2" d="M154.096,1.304c-0.133-0.008-0.272,0-0.459,0.016c-1.048,0.085-1.515,0.621-1.646,1.211
			h0.023c0.249-0.256,0.599-0.404,1.072-0.404c0.847,0,1.561,0.598,1.561,1.646c0,1.002-0.769,1.825-1.863,1.825
			c-1.344,0-2.004-1.002-2.004-2.206c0-0.948,0.349-1.74,0.893-2.245c0.505-0.458,1.157-0.707,1.949-0.746
			c0.218-0.016,0.357-0.016,0.475-0.008V1.304z M153.45,3.836c0-0.466-0.248-0.87-0.753-0.87c-0.318,0-0.582,0.194-0.699,0.45
			c-0.031,0.062-0.046,0.155-0.046,0.295c0.022,0.536,0.279,1.017,0.815,1.017C153.186,4.729,153.45,4.349,153.45,3.836z"/>
		<path id="XMLID_1259_" class="st2" d="M158.912,2.967c0,1.561-0.63,2.633-1.919,2.633c-1.305,0-1.88-1.173-1.888-2.602
			c0-1.46,0.622-2.617,1.927-2.617C158.384,0.38,158.912,1.584,158.912,2.967z M156.294,2.997c-0.008,1.157,0.272,1.709,0.73,1.709
			s0.707-0.575,0.707-1.724c0-1.119-0.241-1.709-0.715-1.709C156.582,1.273,156.286,1.825,156.294,2.997z"/>
		<path id="XMLID_1262_" class="st2" d="M163.114,0.466v0.746l-2.081,4.303h-1.251l2.082-4.062V1.436h-2.314V0.466H163.114z"/>
		<path id="XMLID_1264_" class="st2" d="M163.752,6.415c0.428-0.714,0.785-1.763,0.785-3.138s-0.35-2.408-0.785-3.13h0.823
			c0.412,0.598,0.886,1.615,0.886,3.13c-0.008,1.515-0.474,2.532-0.886,3.138H163.752z"/>
	</g>
	<rect id="XMLID_66_" x="94.034" class="st2" width="6.476" height="5.516"/>
	<rect id="XMLID_62_" x="0.145" y="34.622" class="st2" width="178.113" height="4.348"/>
	<rect id="XMLID_60_" y="46.701" class="st2" width="64.303" height="4.348"/>
	<rect id="XMLID_58_" y="58.78" class="st2" width="52.195" height="4.348"/>
	<rect id="XMLID_56_" y="70.861" class="st2" width="29.594" height="4.348"/>
	<rect id="XMLID_54_" y="95.01" class="st2" width="125.377" height="4.348"/>
	<rect id="XMLID_52_" y="107.089" class="st2" width="45.739" height="4.348"/>
	<rect id="XMLID_50_" y="119.167" class="st2" width="44.663" height="4.348"/>
	<rect id="XMLID_48_" y="131.245" class="st2" width="34.707" height="4.348"/>
	<rect id="XMLID_46_" y="143.324" class="st2" width="32.286" height="4.348"/>
	<rect id="XMLID_45_" y="167.358" class="st2" width="58.922" height="4.348"/>
	<rect id="XMLID_43_" y="192.602" class="st2" width="45.201" height="4.349"/>
	<rect id="XMLID_41_" y="204.685" class="st2" width="29.326" height="4.35"/>
	<rect id="XMLID_40_" y="227.871" class="st2" width="36.321" height="4.35"/>
</g>
</svg>
