<?xml version="1.0" encoding="utf-8"?>
<svg version="1.1" xmlns="http://www.w3.org/2000/svg" xmlns:xlink="http://www.w3.org/1999/xlink" x="0px" y="0px"
	 width="330.471px" height="189.147px" viewBox="0 0 330.471 189.147" style="enable-background:new 0 0 330.471 189.147;"
	 xml:space="preserve">
<style type="text/css">
	.st0{
		fill:#9A9485;
	}
	.st0{
		fill:transparent;
		-webkit-animation: st0 1s ease-in-out forwards 4.5s;
		-moz-animation: st0 1s ease-in-out forwards 4.5s;
		-o-animation: st0 1s ease-in-out forwards 4.5s
		animation: st0 1s ease-in-out forwards 4.5s;

	}

		@-webkit-keyframes st0 {
			from{fill:transparent}
			to{fill:#9A9485}
	}

		@keyframes st0 {
			from{fill:transparent}
			to{fill:#9A9485}
	}


	.st1{
		fill:#FFFFFF;
	}
	.st1{
		fill:transparent;
		-webkit-animation: st1 1s ease-in-out forwards 5.5s;
		-moz-animation: st1 1s ease-in-out forwards 5.5s;
		-o-animation: st1 1s ease-in-out forwards 5.5s
		animation: st1 1s ease-in-out forwards 5.5s;

	}

		@-webkit-keyframes st1 {
			from{fill:transparent}
			to{fill:#FFF}
	}

		@keyframes st1 {
			from{fill:transparent}
			to{fill:#FFF}
	}


	.st2{
		fill:#E8500E;
	}
	.st2{
		fill:transparent;
		-webkit-animation: st2 1s ease-in-out forwards 3.5s;
		-moz-animation: st2 1s ease-in-out forwards 3.5s;
		-o-animation: st2 1s ease-in-out forwards 3.5s
		animation: st2 1s ease-in-out forwards 3.5s;

	}

		@-webkit-keyframes st2 {
			from{fill:transparent}
			to{fill:#E8500E}
	}

		@keyframes st2 {
			from{fill:transparent}
			to{fill:#E8500E}
	}

	.st3{
		fill:#666666;
	}
	.st3{
		fill:transparent;
		-webkit-animation: st3 1s ease-in-out forwards 2.5s;
		-moz-animation: st3 1s ease-in-out forwards 2.5s;
		-o-animation: st3 1s ease-in-out forwards 2.5s
		animation: st3 1s ease-in-out forwards 2.5s;

	}

		@-webkit-keyframes st3 {
			from{fill:transparent}
			to{fill:#666666}
	}

		@keyframes st3 {
			from{fill:transparent}
			to{fill:#666666}
	}


	.lineaGris{
		fill:none;
		stroke:transparent;
		stroke-width:1.27;
		stroke-linecap:round;
		stroke-miterlimit:10;
	}
	.lineaGris{
		stroke-dasharray:1000;
		stroke-dashoffset:0;
		-webkit-animation: lineaGris 4s ease-in-out forwards 2.5s;
		-moz-animation: lineaGris 4s ease-in-out forwards 2.5s;
		-o-animation: lineaGris 4s ease-in-out forwards 2.5s;
		animation: lineaGris 4s ease-in-out forwards 2.5s;
	}

	@-webkit-keyframes lineaGris{
		from{
			stroke-dashoffset: 1000;
			stroke:#666666;
		}

		to{
			stroke-dashoffset: 0;
			stroke:#666666;
		}
	}


	.lineaNaranja{
		fill:none;
		stroke:transparent;
		stroke-width:1.27;
		stroke-linecap:round;
		stroke-miterlimit:10;
	}
	.lineaNaranja{
		stroke-dasharray:1000;
		stroke-dashoffset:0;
		-webkit-animation: lineaNaranja 2s ease-in-out forwards 1.5s;
		-moz-animation: lineaNaranja 2s ease-in-out forwards 1.5s;
		-o-animation: lineaNaranja 2s ease-in-out forwards 1.5s;
		animation: lineaNaranja 2s ease-in-out forwards 1.5s;
	}

	@-webkit-keyframes lineaNaranja{
		from{
			stroke-dashoffset: 1000;
			stroke:#F05724;
		}

		to{
			stroke-dashoffset: 0;
			stroke:#F05724;
		}
	}

</style>
<g id="cuadroMarron">
	<g id="XMLID_1_">
		<rect id="XMLID_1375_" x="109.717" y="22.082" class="st0" width="50.892" height="20.013"/>
		<g id="XMLID_1356_">
			<path id="XMLID_1373_" class="st1" d="M117.43,33.746c0.236,0.123,0.778,0.35,1.32,0.35c0.69,0,1.04-0.332,1.04-0.761
				c0-0.56-0.56-0.813-1.146-0.813h-0.542v-0.953h0.516c0.446-0.009,1.015-0.175,1.015-0.656c0-0.341-0.28-0.594-0.84-0.594
				c-0.463,0-0.952,0.201-1.188,0.341l-0.271-0.962c0.341-0.218,1.023-0.428,1.758-0.428c1.215,0,1.889,0.638,1.889,1.417
				c0,0.603-0.341,1.075-1.041,1.32v0.017c0.683,0.123,1.233,0.639,1.233,1.382c0,1.005-0.884,1.74-2.326,1.74
				c-0.734,0-1.355-0.192-1.688-0.402L117.43,33.746z"/>
			<path id="XMLID_1371_" class="st1" d="M121.513,36.089c0.271-0.778,0.507-1.688,0.63-2.483l1.354-0.087
				c-0.288,0.892-0.682,1.81-1.102,2.492L121.513,36.089z"/>
			<path id="XMLID_1369_" class="st1" d="M127.746,30.458h-2.203l-0.123,0.875c0.123-0.018,0.228-0.018,0.367-0.018
				c0.542,0,1.093,0.123,1.495,0.411c0.429,0.289,0.69,0.76,0.69,1.425c0,1.058-0.909,1.994-2.438,1.994
				c-0.691,0-1.269-0.157-1.583-0.324l0.236-0.997c0.253,0.123,0.77,0.28,1.285,0.28c0.551,0,1.137-0.262,1.137-0.866
				c0-0.585-0.464-0.944-1.601-0.944c-0.314,0-0.533,0.017-0.77,0.052l0.376-2.981h3.131V30.458z"/>
			<path id="XMLID_1367_" class="st1" d="M130.368,32.137c0-0.533-0.018-0.988-0.035-1.364h1.119l0.062,0.577h0.026
				c0.184-0.271,0.56-0.673,1.294-0.673c0.551,0,0.988,0.28,1.172,0.726h0.018c0.157-0.219,0.35-0.394,0.551-0.516
				c0.235-0.14,0.498-0.21,0.812-0.21c0.822,0,1.443,0.577,1.443,1.854v2.518h-1.295v-2.326c0-0.621-0.2-0.979-0.629-0.979
				c-0.307,0-0.524,0.21-0.612,0.463c-0.035,0.096-0.053,0.236-0.053,0.341v2.5h-1.294v-2.396c0-0.542-0.192-0.91-0.611-0.91
				c-0.342,0-0.543,0.263-0.621,0.481c-0.044,0.105-0.053,0.228-0.053,0.333v2.492h-1.294V32.137z"/>
			<path id="XMLID_1364_" class="st1" d="M138.727,33.335c0.043,0.551,0.586,0.813,1.206,0.813c0.455,0,0.822-0.062,1.181-0.175
				l0.175,0.9c-0.438,0.175-0.971,0.262-1.548,0.262c-1.451,0-2.282-0.839-2.282-2.177c0-1.084,0.674-2.282,2.16-2.282
				c1.381,0,1.906,1.075,1.906,2.133c0,0.228-0.026,0.428-0.044,0.524H138.727z M140.292,32.425c0-0.323-0.14-0.866-0.752-0.866
				c-0.56,0-0.786,0.507-0.821,0.866H140.292z"/>
			<path id="XMLID_1362_" class="st1" d="M142.128,33.885c0.245,0.149,0.752,0.324,1.146,0.324c0.402,0,0.568-0.14,0.568-0.358
				c0-0.219-0.131-0.324-0.63-0.49c-0.883-0.297-1.224-0.778-1.215-1.285c0-0.796,0.682-1.399,1.74-1.399
				c0.498,0,0.944,0.114,1.206,0.245l-0.236,0.918c-0.192-0.104-0.56-0.245-0.927-0.245c-0.323,0-0.507,0.131-0.507,0.35
				c0,0.201,0.166,0.306,0.69,0.49c0.813,0.28,1.154,0.691,1.163,1.32c0,0.795-0.63,1.381-1.854,1.381
				c-0.56,0-1.058-0.123-1.382-0.297L142.128,33.885z"/>
			<path id="XMLID_1359_" class="st1" d="M146.77,33.335c0.043,0.551,0.586,0.813,1.206,0.813c0.455,0,0.822-0.062,1.181-0.175
				l0.175,0.9c-0.438,0.175-0.971,0.262-1.548,0.262c-1.451,0-2.282-0.839-2.282-2.177c0-1.084,0.674-2.282,2.16-2.282
				c1.381,0,1.906,1.075,1.906,2.133c0,0.228-0.026,0.428-0.044,0.524H146.77z M148.335,32.425c0-0.323-0.14-0.866-0.752-0.866
				c-0.56,0-0.786,0.507-0.821,0.866H148.335z"/>
			<path id="XMLID_1357_" class="st1" d="M150.171,33.885c0.245,0.149,0.752,0.324,1.146,0.324c0.402,0,0.568-0.14,0.568-0.358
				c0-0.219-0.131-0.324-0.63-0.49c-0.883-0.297-1.224-0.778-1.215-1.285c0-0.796,0.682-1.399,1.74-1.399
				c0.498,0,0.944,0.114,1.206,0.245l-0.236,0.918c-0.192-0.104-0.56-0.245-0.927-0.245c-0.323,0-0.507,0.131-0.507,0.35
				c0,0.201,0.166,0.306,0.69,0.49c0.813,0.28,1.154,0.691,1.163,1.32c0,0.795-0.63,1.381-1.854,1.381
				c-0.56,0-1.058-0.123-1.382-0.297L150.171,33.885z"/>
		</g>
	</g>
</g>
<g id="cuadroNaranja">
	<g id="XMLID_2_">
		<rect id="XMLID_1631_" x="195.874" class="st2" width="81.151" height="50.242"/>
		<g id="XMLID_1616_">
			<path id="XMLID_1625_" class="st1" d="M210.953,9.88h-0.078l-4.405,2.378l-0.663-2.612l5.536-2.963h2.924v25.341h-3.313V9.88z"/>
			<path id="XMLID_1622_" class="st1" d="M238.984,19.081c0,8.616-3.197,13.372-8.812,13.372c-4.951,0-8.304-4.639-8.382-13.021
				c0-8.499,3.665-13.177,8.812-13.177C235.943,6.255,238.984,11.011,238.984,19.081z M225.221,19.471
				c0,6.589,2.027,10.332,5.146,10.332c3.509,0,5.186-4.094,5.186-10.565c0-6.238-1.599-10.331-5.146-10.331
				C227.405,8.906,225.221,12.57,225.221,19.471z"/>
			<path id="XMLID_1620_" class="st1" d="M241.011,36.82c0.857-2.3,1.91-6.472,2.339-9.318l3.82-0.39
				c-0.896,3.313-2.611,7.641-3.703,9.474L241.011,36.82z"/>
			<path id="XMLID_1617_" class="st1" d="M252.2,29.608c0.74,0.078,1.598,0,2.768-0.117c1.988-0.273,3.859-1.091,5.302-2.456
				c1.677-1.521,2.886-3.743,3.354-6.745h-0.117c-1.403,1.715-3.431,2.729-5.965,2.729c-4.562,0-7.485-3.431-7.485-7.758
				c0-4.795,3.47-9.006,8.654-9.006c5.186,0,8.383,4.21,8.383,10.682c0,5.575-1.872,9.474-4.367,11.891
				c-1.949,1.91-4.639,3.08-7.368,3.392c-1.247,0.195-2.339,0.234-3.157,0.195V29.608z M253.447,15.026
				c0,3.158,1.91,5.38,4.873,5.38c2.301,0,4.094-1.131,4.99-2.651c0.195-0.312,0.312-0.702,0.312-1.248
				c0-4.327-1.599-7.641-5.186-7.641C255.513,8.867,253.447,11.44,253.447,15.026z"/>
		</g>
		<g id="XMLID_1326_">
			<path id="XMLID_1337_" class="st1" d="M225.066,43.442c0-0.533-0.018-0.988-0.035-1.364h1.119l0.062,0.577h0.026
				c0.184-0.271,0.56-0.673,1.294-0.673c0.551,0,0.988,0.28,1.172,0.726h0.018c0.157-0.219,0.35-0.394,0.551-0.516
				c0.235-0.14,0.498-0.21,0.812-0.21c0.822,0,1.442,0.577,1.442,1.854v2.518h-1.294v-2.326c0-0.621-0.2-0.979-0.629-0.979
				c-0.307,0-0.524,0.21-0.612,0.463c-0.035,0.096-0.053,0.236-0.053,0.341v2.5h-1.294v-2.396c0-0.542-0.192-0.91-0.611-0.91
				c-0.342,0-0.542,0.263-0.621,0.481c-0.044,0.105-0.053,0.228-0.053,0.333v2.492h-1.294V43.442z"/>
			<path id="XMLID_1334_" class="st1" d="M233.424,44.64c0.043,0.551,0.586,0.813,1.206,0.813c0.455,0,0.822-0.062,1.181-0.175
				l0.175,0.9c-0.438,0.175-0.971,0.262-1.548,0.262c-1.451,0-2.282-0.839-2.282-2.177c0-1.084,0.674-2.282,2.16-2.282
				c1.381,0,1.906,1.075,1.906,2.133c0,0.228-0.026,0.428-0.044,0.524H233.424z M234.989,43.731c0-0.323-0.14-0.866-0.752-0.866
				c-0.56,0-0.786,0.507-0.821,0.866H234.989z"/>
			<path id="XMLID_1332_" class="st1" d="M236.825,45.191c0.245,0.149,0.752,0.324,1.146,0.324c0.402,0,0.568-0.14,0.568-0.358
				c0-0.219-0.131-0.324-0.63-0.49c-0.883-0.297-1.224-0.778-1.215-1.285c0-0.796,0.682-1.399,1.74-1.399
				c0.498,0,0.944,0.114,1.206,0.245l-0.236,0.918c-0.192-0.104-0.56-0.245-0.927-0.245c-0.323,0-0.507,0.131-0.507,0.35
				c0,0.201,0.166,0.306,0.69,0.49c0.813,0.28,1.154,0.691,1.163,1.32c0,0.795-0.63,1.381-1.854,1.381
				c-0.56,0-1.058-0.123-1.382-0.297L236.825,45.191z"/>
			<path id="XMLID_1329_" class="st1" d="M241.468,44.64c0.043,0.551,0.586,0.813,1.206,0.813c0.455,0,0.822-0.062,1.181-0.175
				l0.175,0.9c-0.438,0.175-0.971,0.262-1.548,0.262c-1.451,0-2.282-0.839-2.282-2.177c0-1.084,0.674-2.282,2.16-2.282
				c1.381,0,1.906,1.075,1.906,2.133c0,0.228-0.026,0.428-0.044,0.524H241.468z M243.033,43.731c0-0.323-0.14-0.866-0.752-0.866
				c-0.56,0-0.786,0.507-0.821,0.866H243.033z"/>
			<path id="XMLID_1327_" class="st1" d="M244.869,45.191c0.245,0.149,0.752,0.324,1.146,0.324c0.402,0,0.568-0.14,0.568-0.358
				c0-0.219-0.131-0.324-0.63-0.49c-0.883-0.297-1.224-0.778-1.215-1.285c0-0.796,0.682-1.399,1.74-1.399
				c0.498,0,0.943,0.114,1.206,0.245l-0.236,0.918c-0.192-0.104-0.56-0.245-0.927-0.245c-0.323,0-0.507,0.131-0.507,0.35
				c0,0.201,0.166,0.306,0.69,0.49c0.813,0.28,1.154,0.691,1.163,1.32c0,0.795-0.63,1.381-1.854,1.381
				c-0.56,0-1.058-0.123-1.382-0.297L244.869,45.191z"/>
		</g>
	</g>
</g>
<g id="cuadroGris">
	<g id="XMLID_1627_">
		<rect id="XMLID_1630_" x="15.591" y="138.905" class="st3" width="63.35" height="50.242"/>
		<g id="XMLID_1608_">
			<path id="XMLID_1614_" class="st1" d="M40.755,146.142v2.261l-11.033,23.08h-3.548l10.994-22.417v-0.078H24.771v-2.846H40.755z"
				/>
			<path id="XMLID_1612_" class="st1" d="M43.172,176.278c0.857-2.3,1.91-6.472,2.339-9.318l3.82-0.39
				c-0.896,3.313-2.611,7.641-3.703,9.474L43.172,176.278z"/>
			<path id="XMLID_1609_" class="st1" d="M62.976,171.483v-6.9H51.203v-2.261l11.306-16.179h3.704v15.75h3.548v2.69h-3.548v6.9
				H62.976z M62.976,161.892v-8.46c0-1.325,0.039-2.651,0.117-3.977h-0.117c-0.779,1.481-1.403,2.573-2.105,3.743l-6.198,8.616
				v0.078H62.976z"/>
		</g>
		<g id="XMLID_1339_">
			<path id="XMLID_1350_" class="st1" d="M35.882,182.249c0-0.533-0.018-0.988-0.035-1.364h1.119l0.062,0.577h0.026
				c0.184-0.271,0.56-0.673,1.294-0.673c0.551,0,0.988,0.28,1.172,0.726h0.018c0.157-0.219,0.35-0.394,0.551-0.516
				c0.235-0.14,0.498-0.21,0.812-0.21c0.822,0,1.442,0.577,1.442,1.854v2.518h-1.294v-2.326c0-0.621-0.2-0.979-0.629-0.979
				c-0.307,0-0.524,0.21-0.612,0.463c-0.035,0.096-0.053,0.236-0.053,0.341v2.5h-1.294v-2.396c0-0.542-0.192-0.91-0.611-0.91
				c-0.342,0-0.542,0.263-0.621,0.481c-0.044,0.105-0.053,0.228-0.053,0.333v2.492h-1.294V182.249z"/>
			<path id="XMLID_1347_" class="st1" d="M44.241,183.447c0.043,0.551,0.586,0.813,1.206,0.813c0.455,0,0.822-0.062,1.181-0.175
				l0.175,0.9c-0.438,0.175-0.971,0.262-1.548,0.262c-1.451,0-2.282-0.839-2.282-2.177c0-1.084,0.674-2.282,2.16-2.282
				c1.381,0,1.906,1.075,1.906,2.133c0,0.228-0.026,0.428-0.044,0.524H44.241z M45.805,182.538c0-0.323-0.14-0.866-0.752-0.866
				c-0.56,0-0.786,0.507-0.821,0.866H45.805z"/>
			<path id="XMLID_1345_" class="st1" d="M47.641,183.998c0.245,0.149,0.752,0.324,1.146,0.324c0.402,0,0.568-0.14,0.568-0.358
				c0-0.219-0.131-0.324-0.63-0.49c-0.883-0.297-1.224-0.778-1.215-1.285c0-0.796,0.682-1.399,1.74-1.399
				c0.498,0,0.944,0.114,1.206,0.245l-0.236,0.918c-0.192-0.104-0.56-0.245-0.927-0.245c-0.323,0-0.507,0.131-0.507,0.35
				c0,0.201,0.166,0.306,0.69,0.49c0.813,0.28,1.154,0.691,1.163,1.32c0,0.795-0.63,1.381-1.854,1.381
				c-0.56,0-1.058-0.123-1.382-0.297L47.641,183.998z"/>
			<path id="XMLID_1342_" class="st1" d="M52.285,183.447c0.043,0.551,0.586,0.813,1.206,0.813c0.455,0,0.822-0.062,1.181-0.175
				l0.175,0.9c-0.438,0.175-0.971,0.262-1.548,0.262c-1.451,0-2.282-0.839-2.282-2.177c0-1.084,0.674-2.282,2.16-2.282
				c1.381,0,1.906,1.075,1.906,2.133c0,0.228-0.026,0.428-0.044,0.524H52.285z M53.849,182.538c0-0.323-0.14-0.866-0.752-0.866
				c-0.56,0-0.786,0.507-0.821,0.866H53.849z"/>
			<path id="XMLID_1340_" class="st1" d="M55.685,183.998c0.245,0.149,0.752,0.324,1.146,0.324c0.402,0,0.568-0.14,0.568-0.358
				c0-0.219-0.131-0.324-0.63-0.49c-0.883-0.297-1.224-0.778-1.215-1.285c0-0.796,0.682-1.399,1.74-1.399
				c0.498,0,0.943,0.114,1.206,0.245l-0.236,0.918c-0.192-0.104-0.56-0.245-0.927-0.245c-0.323,0-0.507,0.131-0.507,0.35
				c0,0.201,0.166,0.306,0.69,0.49c0.813,0.28,1.154,0.691,1.163,1.32c0,0.795-0.63,1.381-1.854,1.381
				c-0.56,0-1.058-0.123-1.382-0.297L55.685,183.998z"/>
		</g>
	</g>
</g>
<g id="lineaGris">
	<polyline id="XMLID_1604_" class="lineaGris" points="8.108,8.335 17.214,8.335 17.214,9.752 18.673,9.752 18.673,11.391 18.673,13.85 
		20.402,13.85 20.402,15.945 22.315,15.945 22.315,17.675 26.503,17.675 26.503,20.317 40.257,20.317 40.257,22.957 42.169,22.957 
		42.169,25.052 59.216,25.052 59.216,27.967 61.794,27.967 61.794,30.699 61.794,37.53 62.66,37.53 62.66,40.262 64.117,40.262 
		64.117,42.811 72.131,42.811 72.131,47.891 77.868,47.891 77.868,50.825 79.507,50.825 79.507,53.193 80.783,53.193 80.783,58.84 
		82.605,58.84 82.605,67.947 83.698,67.947 83.698,72.774 83.698,75.233 87.157,75.233 87.157,76.873 91.348,76.873 91.348,80.059 
		98.269,80.059 98.269,84.704 99.999,84.704 99.999,89.124 102.184,89.124 102.184,92.173 102.184,96.991 103.824,96.991 
		103.824,99.73 109.522,99.73 113.842,105.378 113.842,108.566 118.76,108.566 118.76,112.221 122.949,112.221 122.949,116.123 
		122.949,121.68 124.588,121.68 124.588,125.686 126.137,125.686 126.137,129.877 127.686,129.877 127.686,138.908 140.981,138.908 
		140.981,145.814 145.718,145.814 145.718,152.461 149.434,152.461 149.434,156.469 165.297,156.469 165.297,159.474 
		167.849,159.474 167.849,162.57 173.13,162.57 173.13,166.555 258.737,166.555 258.737,175.251 275.677,175.251 275.677,183.973 
		305.457,183.973 	"/>
</g>
<g id="lineaNaranja">
	<polyline id="XMLID_1605_" class="lineaNaranja" points="0.68,4.065 20.589,4.065 20.589,8.335 36.249,8.335 36.249,10.714 39.936,10.714 
		39.936,13.82 41.303,13.82 41.303,17.211 54.828,17.211 54.828,21.044 61.794,21.044 61.794,28.147 64.39,28.147 64.39,29.514 
		78.871,29.514 78.871,34.729 80.919,34.729 80.919,37.301 82.831,37.301 82.831,44.951 99.362,44.951 99.362,46.736 
		100.864,46.736 100.864,49.553 100.864,51.371 102.094,51.371 102.094,55.607 103.46,55.607 103.46,61.891 119.307,61.891 
		119.307,63.939 119.307,65.305 121.766,65.305 121.766,69.814 124.225,69.814 124.225,74.753 125.363,74.753 125.363,77.191 
		126.866,77.191 126.866,80.424 129.052,80.424 129.052,83.429 131.055,83.429 131.055,84.796 140.527,84.796 140.527,93.719 
		142.21,93.719 142.21,95.724 143.896,95.724 143.896,97.364 143.896,99.457 156.737,99.457 157.968,105.127 165.245,105.605 
		165.245,121.725 172.311,121.725 172.311,124.866 178.987,124.866 178.987,128.829 182.557,128.829 182.557,131.834 
		204.823,131.834 204.823,136.614 207.556,136.614 207.556,141.532 227.035,141.532 227.035,145.768 237.466,145.768 
		237.466,150.413 252.636,150.413 252.636,157.652 270.774,157.652 270.774,164.482 291.297,164.482 291.297,174.182 
		329.821,174.182 	"/>
</g>
</svg>
