<?xml version="1.0" encoding="utf-8"?>
<svg version="1.1" xmlns="http://www.w3.org/2000/svg" xmlns:xlink="http://www.w3.org/1999/xlink" x="0px" y="0px"
	 width="498.676px" height="259.241px" viewBox="0 0 498.676 259.241" style="enable-background:new 0 0 498.676 259.241;"
	 xml:space="preserve">
<style type="text/css">
	.st0{
		fill:#E8500E;
	}

	.st0{
		fill:transparent;
		-webkit-animation: st0 1s ease-in-out forwards 1.5s;
		-moz-animation: st0 1s ease-in-out forwards 1.5s;
		-o-animation: st0 1s ease-in-out forwards 1.5s
		animation: st0 1s ease-in-out forwards 1.5s;

	}

		@-webkit-keyframes st0 {
			from{fill:transparent}
			to{fill:#E8500E}
	}

		@keyframes st0 {
			from{fill:transparent}
			to{fill:#E8500E}
	}

	.st1{
		fill:#666666;
	}

	.st1{
		fill:transparent;
		-webkit-animation: st1 1s ease-in-out forwards 3.5s;
		-moz-animation: st1 1s ease-in-out forwards 3.5s;
		-o-animation: st1 1s ease-in-out forwards 3.5s
		animation: st1 1s ease-in-out forwards 3.5s;

	}

		@-webkit-keyframes st1 {
			from{fill:transparent}
			to{fill:#666666}
	}

		@keyframes st1 {
			from{fill:transparent}
			to{fill:#666666}
	}


	.lineaGris{
		fill:none;
		stroke:transparent;
		stroke-width:43;
		stroke-miterlimit:10;
	}

	.lineaGris{
		stroke-dasharray:1000;
		stroke-dashoffset:0;
		-webkit-animation: lineaGris 4s ease-in-out forwards 2.5s;
		-moz-animation: lineaGris 4s ease-in-out forwards 2.5s;
		-o-animation: lineaGris 4s ease-in-out forwards 2.5s;
		animation: lineaGris 4s ease-in-out forwards 2.5s;
	}

	@-webkit-keyframes lineaGris{
		from{
			stroke-dashoffset: 1000;
			stroke:#666666;
		}

		to{
			stroke-dashoffset: 0;
			stroke:#666666;
		}
	}

	.lineaNaranja{
		fill:none;
		stroke:transparent;
		stroke-width:43;
		stroke-miterlimit:10;
	}

	.lineaNaranja{
		stroke-dasharray:1000;
		stroke-dashoffset:0;
		-webkit-animation: lineaNaranja 2s ease-in-out forwards 1.5s;
		-moz-animation: lineaNaranja 2s ease-in-out forwards 1.5s;
		-o-animation: lineaNaranja 2s ease-in-out forwards 1.5s;
		animation: lineaNaranja 2s ease-in-out forwards 1.5s;
	}

	@-webkit-keyframes lineaNaranja{
		from{
			stroke-dashoffset: 1000;
			stroke:#F05724;
		}

		to{
			stroke-dashoffset: 0;
			stroke:#F05724;
		}
	}
</style>
<g id="txtGris_1_">
	<g id="XMLID_90_">
		<g id="XMLID_429_">
			<path id="XMLID_430_" class="st0" d="M320.979,0.384v7.147h-1.622V0.384H320.979z"/>
			<path id="XMLID_432_" class="st0" d="M322.38,0.479c0.52-0.085,1.294-0.148,2.152-0.148c1.061,0,1.803,0.159,2.312,0.562
				c0.424,0.339,0.657,0.838,0.657,1.495c0,0.912-0.647,1.538-1.262,1.761V4.18c0.498,0.202,0.773,0.679,0.954,1.336
				c0.223,0.806,0.445,1.739,0.583,2.015h-1.654c-0.116-0.202-0.286-0.785-0.498-1.665c-0.191-0.891-0.499-1.135-1.156-1.145h-0.488
				v2.81h-1.601V0.479z M323.98,3.554h0.637c0.806,0,1.283-0.403,1.283-1.028c0-0.658-0.445-0.986-1.188-0.997
				c-0.393,0-0.615,0.032-0.732,0.053V3.554z"/>
			<path id="XMLID_435_" class="st0" d="M332.922,4.509h-2.63v1.697h2.938v1.326h-4.56V0.384h4.411v1.325h-2.789v1.485h2.63V4.509z"
				/>
			<path id="XMLID_437_" class="st0" d="M334.386,5.866c0.435,0.223,1.103,0.445,1.792,0.445c0.742,0,1.135-0.308,1.135-0.774
				c0-0.445-0.339-0.7-1.198-1.007c-1.188-0.414-1.962-1.071-1.962-2.11c0-1.22,1.019-2.153,2.704-2.153
				c0.807,0,1.4,0.169,1.824,0.36l-0.36,1.304c-0.286-0.138-0.796-0.339-1.495-0.339c-0.7,0-1.04,0.318-1.04,0.689
				c0,0.456,0.403,0.658,1.326,1.007c1.262,0.467,1.855,1.125,1.855,2.132c0,1.198-0.922,2.216-2.884,2.216
				c-0.817,0-1.623-0.212-2.026-0.435L334.386,5.866z"/>
			<path id="XMLID_439_" class="st0" d="M340.113,5.866c0.435,0.223,1.103,0.445,1.792,0.445c0.742,0,1.135-0.308,1.135-0.774
				c0-0.445-0.339-0.7-1.198-1.007c-1.188-0.414-1.962-1.071-1.962-2.11c0-1.22,1.019-2.153,2.704-2.153
				c0.807,0,1.4,0.169,1.824,0.36l-0.36,1.304c-0.286-0.138-0.796-0.339-1.495-0.339c-0.7,0-1.04,0.318-1.04,0.689
				c0,0.456,0.403,0.658,1.326,1.007c1.262,0.467,1.855,1.125,1.855,2.132c0,1.198-0.923,2.216-2.884,2.216
				c-0.817,0-1.623-0.212-2.026-0.435L340.113,5.866z"/>
			<path id="XMLID_441_" class="st0" d="M347.453,5.697l-0.51,1.834h-1.675l2.185-7.147h2.121l2.216,7.147h-1.739L349.5,5.697
				H347.453z M349.267,4.488l-0.446-1.517c-0.127-0.424-0.254-0.955-0.36-1.378h-0.021c-0.106,0.424-0.213,0.965-0.329,1.378
				l-0.424,1.517H349.267z"/>
			<path id="XMLID_444_" class="st0" d="M356.362,2.091c0,1.018-0.827,1.835-1.877,1.835s-1.888-0.817-1.888-1.835
				c0-1.007,0.838-1.824,1.888-1.824S356.362,1.083,356.362,2.091z M353.159,2.102c0,0.764,0.562,1.368,1.326,1.368
				s1.325-0.604,1.325-1.379c0-0.753-0.562-1.368-1.336-1.368C353.722,0.723,353.159,1.338,353.159,2.102z M354.252,2.96h-0.52
				V1.274c0.116-0.021,0.392-0.053,0.742-0.053c0.382,0,0.551,0.053,0.679,0.127c0.105,0.074,0.18,0.202,0.18,0.371
				c0,0.17-0.158,0.318-0.392,0.382v0.021c0.19,0.064,0.297,0.191,0.35,0.435c0.053,0.244,0.085,0.339,0.116,0.403h-0.583
				c-0.053-0.063-0.085-0.212-0.116-0.36c-0.032-0.17-0.117-0.254-0.286-0.254h-0.17V2.96z M354.272,1.996h0.149
				c0.19,0,0.317-0.074,0.317-0.202c0-0.138-0.116-0.212-0.297-0.212c-0.063,0-0.127,0.011-0.17,0.011V1.996z"/>
			<path id="XMLID_449_" class="st0" d="M362.026,0.203c-0.604,0.976-1.071,2.397-1.071,4.295c0,1.867,0.477,3.277,1.071,4.263
				h-1.124c-0.573-0.816-1.209-2.227-1.209-4.273c0.01-2.058,0.636-3.458,1.209-4.285H362.026z"/>
			<path id="XMLID_451_" class="st0" d="M362.524,7.531l0.657-3.5c0.128-0.658,0.213-1.23,0.276-1.686h1.357l-0.106,0.859h0.021
				c0.487-0.679,1.135-0.976,1.824-0.976c0.848,0,1.325,0.52,1.325,1.41c0,0.233-0.042,0.626-0.085,0.88l-0.572,3.012h-1.527
				l0.541-2.874c0.032-0.18,0.053-0.392,0.053-0.583c0-0.361-0.127-0.615-0.509-0.615c-0.498,0-1.082,0.625-1.294,1.771
				l-0.435,2.301H362.524z"/>
			<path id="XMLID_453_" class="st0" d="M370.924,4.084V3.099h5.473v0.986H370.924z M370.924,6.28V5.293h5.473V6.28H370.924z"/>
			<path id="XMLID_456_" class="st0" d="M381.467,2.07h-0.021l-1.314,0.625l-0.266-1.209l1.824-0.848h1.336v6.893h-1.559V2.07z"/>
			<path id="XMLID_458_" class="st0" d="M385.582,5.951c0.287,0.148,0.944,0.424,1.602,0.424c0.838,0,1.262-0.403,1.262-0.923
				c0-0.679-0.679-0.986-1.389-0.986h-0.658V3.31h0.626c0.541-0.011,1.23-0.212,1.23-0.795c0-0.414-0.34-0.721-1.019-0.721
				c-0.562,0-1.155,0.244-1.442,0.414l-0.328-1.167c0.413-0.265,1.24-0.52,2.132-0.52c1.474,0,2.29,0.774,2.29,1.718
				c0,0.732-0.413,1.305-1.262,1.602v0.021c0.827,0.148,1.495,0.774,1.495,1.676c0,1.22-1.071,2.11-2.82,2.11
				c-0.892,0-1.645-0.233-2.047-0.488L385.582,5.951z"/>
			<path id="XMLID_460_" class="st0" d="M391.183,7.531V6.556l0.891-0.806c1.506-1.347,2.238-2.121,2.259-2.927
				c0-0.562-0.339-1.007-1.135-1.007c-0.594,0-1.113,0.297-1.474,0.572l-0.456-1.156c0.52-0.393,1.325-0.71,2.259-0.71
				c1.559,0,2.418,0.912,2.418,2.164c0,1.156-0.838,2.078-1.835,2.969l-0.636,0.53v0.021h2.598v1.326H391.183z"/>
			<path id="XMLID_462_" class="st0" d="M396.995,8.761c0.583-0.976,1.071-2.407,1.071-4.284s-0.478-3.288-1.071-4.274h1.124
				c0.562,0.817,1.209,2.206,1.209,4.274c-0.011,2.068-0.646,3.457-1.209,4.284H396.995z"/>
		</g>
		<rect id="XMLID_25_" x="301.809" class="st0" width="8.842" height="7.531"/>
	</g>
</g>
<g id="txtGris">
	<g id="XMLID_91_">
		<g id="XMLID_354_">
			<path id="XMLID_355_" class="st1" d="M324.606,23.44c-0.297,0.148-0.965,0.308-1.835,0.308c-2.471,0-3.743-1.538-3.743-3.574
				c0-2.439,1.739-3.796,3.902-3.796c0.838,0,1.475,0.169,1.761,0.318l-0.329,1.283c-0.328-0.138-0.784-0.265-1.357-0.265
				c-1.283,0-2.279,0.774-2.279,2.365c0,1.432,0.848,2.333,2.29,2.333c0.488,0,1.029-0.106,1.347-0.233L324.606,23.44z"/>
			<path id="XMLID_357_" class="st1" d="M327.333,21.807l-0.51,1.834h-1.675l2.185-7.147h2.121l2.216,7.147h-1.739l-0.552-1.834
				H327.333z M329.146,20.598l-0.445-1.517c-0.128-0.424-0.255-0.955-0.361-1.378h-0.021c-0.106,0.424-0.213,0.965-0.329,1.378
				l-0.424,1.517H329.146z"/>
			<path id="XMLID_360_" class="st1" d="M332.626,16.589c0.52-0.085,1.294-0.148,2.152-0.148c1.061,0,1.803,0.159,2.312,0.562
				c0.424,0.339,0.657,0.838,0.657,1.495c0,0.912-0.647,1.538-1.262,1.761v0.032c0.498,0.202,0.773,0.679,0.954,1.336
				c0.223,0.806,0.445,1.739,0.583,2.015h-1.654c-0.116-0.202-0.286-0.785-0.498-1.665c-0.191-0.891-0.499-1.135-1.156-1.145h-0.488
				v2.81h-1.601V16.589z M334.227,19.664h0.637c0.806,0,1.283-0.403,1.283-1.028c0-0.658-0.445-0.986-1.188-0.997
				c-0.393,0-0.615,0.032-0.732,0.053V19.664z"/>
			<path id="XMLID_363_" class="st1" d="M338.915,16.589c0.424-0.085,1.283-0.148,2.089-0.148c0.986,0,1.591,0.095,2.11,0.403
				c0.498,0.265,0.859,0.753,0.859,1.4c0,0.636-0.371,1.23-1.178,1.527v0.021c0.816,0.223,1.421,0.838,1.421,1.76
				c0,0.647-0.297,1.156-0.742,1.517c-0.52,0.414-1.389,0.647-2.81,0.647c-0.796,0-1.39-0.053-1.75-0.106V16.589z M340.516,19.325
				h0.53c0.849,0,1.305-0.35,1.305-0.88c0-0.541-0.413-0.827-1.146-0.827c-0.35,0-0.551,0.021-0.689,0.042V19.325z M340.516,22.496
				c0.159,0.021,0.351,0.021,0.626,0.021c0.731,0,1.379-0.276,1.379-1.029c0-0.721-0.647-1.007-1.453-1.007h-0.552V22.496z"/>
			<path id="XMLID_367_" class="st1" d="M351.864,19.994c0,2.344-1.421,3.765-3.511,3.765c-2.12,0-3.361-1.602-3.361-3.638
				c0-2.142,1.368-3.743,3.479-3.743C350.666,16.377,351.864,18.021,351.864,19.994z M346.699,20.089c0,1.4,0.658,2.386,1.739,2.386
				c1.093,0,1.719-1.04,1.719-2.429c0-1.283-0.615-2.386-1.729-2.386C347.336,17.661,346.699,18.7,346.699,20.089z"/>
			<path id="XMLID_370_" class="st1" d="M352.926,16.589c0.498-0.085,1.198-0.148,2.185-0.148c0.997,0,1.707,0.191,2.185,0.573
				c0.456,0.36,0.764,0.954,0.764,1.654c0,0.7-0.233,1.294-0.658,1.697c-0.551,0.52-1.367,0.753-2.322,0.753
				c-0.212,0-0.402-0.011-0.552-0.032v2.556h-1.601V16.589z M354.526,19.834c0.139,0.032,0.308,0.042,0.541,0.042
				c0.859,0,1.39-0.435,1.39-1.167c0-0.658-0.456-1.05-1.262-1.05c-0.329,0-0.552,0.032-0.669,0.063V19.834z"/>
			<path id="XMLID_373_" class="st1" d="M359.088,16.494h1.622v5.79h2.843v1.357h-4.465V16.494z"/>
			<path id="XMLID_375_" class="st1" d="M366.173,21.807l-0.51,1.834h-1.675l2.185-7.147h2.121l2.216,7.147h-1.739l-0.552-1.834
				H366.173z M367.986,20.598l-0.445-1.517c-0.128-0.424-0.255-0.955-0.361-1.378h-0.021c-0.106,0.424-0.213,0.965-0.329,1.378
				l-0.424,1.517H367.986z"/>
			<path id="XMLID_378_" class="st1" d="M372.844,17.852h-1.919v-1.357h5.493v1.357h-1.951v5.79h-1.623V17.852z"/>
			<path id="XMLID_380_" class="st1" d="M378.9,16.494v7.147h-1.622v-7.147H378.9z"/>
			<path id="XMLID_382_" class="st1" d="M380.301,23.642v-7.147h1.888l1.484,2.619c0.424,0.753,0.849,1.644,1.167,2.45h0.031
				c-0.105-0.944-0.138-1.909-0.138-2.98v-2.089h1.484v7.147h-1.696l-1.527-2.757c-0.424-0.764-0.891-1.686-1.241-2.524
				l-0.031,0.011c0.042,0.944,0.063,1.951,0.063,3.118v2.153H380.301z"/>
			<path id="XMLID_384_" class="st1" d="M394.162,19.994c0,2.344-1.421,3.765-3.51,3.765c-2.121,0-3.362-1.602-3.362-3.638
				c0-2.142,1.368-3.743,3.479-3.743C392.964,16.377,394.162,18.021,394.162,19.994z M388.997,20.089c0,1.4,0.658,2.386,1.739,2.386
				c1.093,0,1.719-1.04,1.719-2.429c0-1.283-0.615-2.386-1.729-2.386C389.634,17.661,388.997,18.7,388.997,20.089z"/>
			<path id="XMLID_387_" class="st1" d="M394.693,24.066l2.27-7.688h1.07l-2.269,7.688H394.693z"/>
			<path id="XMLID_389_" class="st1" d="M398.734,16.589c0.498-0.085,1.198-0.148,2.185-0.148c0.997,0,1.707,0.191,2.185,0.573
				c0.456,0.36,0.764,0.954,0.764,1.654c0,0.7-0.233,1.294-0.658,1.697c-0.551,0.52-1.367,0.753-2.322,0.753
				c-0.212,0-0.402-0.011-0.552-0.032v2.556h-1.601V16.589z M400.335,19.834c0.139,0.032,0.308,0.042,0.541,0.042
				c0.859,0,1.39-0.435,1.39-1.167c0-0.658-0.456-1.05-1.262-1.05c-0.329,0-0.552,0.032-0.669,0.063V19.834z"/>
			<path id="XMLID_392_" class="st1" d="M406.562,21.807l-0.51,1.834h-1.675l2.185-7.147h2.121l2.216,7.147h-1.739l-0.552-1.834
				H406.562z M408.375,20.598l-0.445-1.517c-0.128-0.424-0.255-0.955-0.361-1.378h-0.021c-0.106,0.424-0.213,0.965-0.329,1.378
				l-0.424,1.517H408.375z"/>
			<path id="XMLID_395_" class="st1" d="M417.104,23.44c-0.297,0.148-0.965,0.308-1.835,0.308c-2.471,0-3.743-1.538-3.743-3.574
				c0-2.439,1.739-3.796,3.902-3.796c0.838,0,1.475,0.169,1.761,0.318l-0.329,1.283c-0.328-0.138-0.784-0.265-1.357-0.265
				c-1.283,0-2.279,0.774-2.279,2.365c0,1.432,0.848,2.333,2.29,2.333c0.488,0,1.029-0.106,1.347-0.233L417.104,23.44z"/>
			<path id="XMLID_397_" class="st1" d="M418.165,16.494h1.622v5.79h2.843v1.357h-4.465V16.494z"/>
			<path id="XMLID_399_" class="st1" d="M425.207,16.494v7.147h-1.622v-7.147H425.207z"/>
			<path id="XMLID_401_" class="st1" d="M427.985,17.852h-1.919v-1.357h5.493v1.357h-1.951v5.79h-1.623V17.852z"/>
			<path id="XMLID_403_" class="st1" d="M434.085,21.807l-0.51,1.834H431.9l2.185-7.147h2.121l2.216,7.147h-1.739l-0.552-1.834
				H434.085z M435.898,20.598l-0.445-1.517c-0.128-0.424-0.255-0.955-0.361-1.378h-0.021c-0.106,0.424-0.213,0.965-0.329,1.378
				l-0.424,1.517H435.898z"/>
			<path id="XMLID_406_" class="st1" d="M443.142,23.642l-0.647-1.294c-0.265-0.498-0.435-0.87-0.636-1.283h-0.021
				c-0.148,0.414-0.329,0.785-0.552,1.283l-0.594,1.294h-1.845l2.067-3.616l-1.993-3.531h1.855l0.626,1.304
				c0.212,0.435,0.371,0.785,0.541,1.188h0.021c0.17-0.456,0.308-0.774,0.488-1.188l0.604-1.304h1.845l-2.015,3.489l2.121,3.659
				H443.142z"/>
			<path id="XMLID_408_" class="st1" d="M450.131,20.619h-2.63v1.697h2.938v1.326h-4.56v-7.147h4.411v1.325h-2.789v1.485h2.63
				V20.619z"/>
			<path id="XMLID_410_" class="st1" d="M451.543,16.494h1.622v5.79h2.843v1.357h-4.465V16.494z"/>
			<path id="XMLID_412_" class="st1" d="M461.374,16.313c-0.604,0.976-1.071,2.397-1.071,4.295c0,1.867,0.477,3.277,1.071,4.263
				h-1.124c-0.573-0.816-1.209-2.227-1.209-4.273c0.01-2.058,0.636-3.458,1.209-4.285H461.374z"/>
			<path id="XMLID_414_" class="st1" d="M461.872,23.642l0.657-3.5c0.128-0.658,0.213-1.23,0.276-1.686h1.357l-0.106,0.859h0.021
				c0.487-0.679,1.135-0.976,1.824-0.976c0.848,0,1.325,0.52,1.325,1.41c0,0.233-0.042,0.626-0.085,0.88l-0.572,3.012h-1.527
				l0.541-2.874c0.032-0.18,0.053-0.392,0.053-0.583c0-0.361-0.127-0.615-0.509-0.615c-0.498,0-1.082,0.625-1.294,1.771
				l-0.435,2.301H461.872z"/>
			<path id="XMLID_416_" class="st1" d="M470.272,20.195v-0.986h5.473v0.986H470.272z M470.272,22.39v-0.986h5.473v0.986H470.272z"
				/>
			<path id="XMLID_419_" class="st1" d="M480.815,18.18h-0.021l-1.314,0.625l-0.266-1.209l1.824-0.848h1.336v6.893h-1.559V18.18z"/>
			<path id="XMLID_421_" class="st1" d="M484.645,23.642v-0.976l0.891-0.806c1.506-1.347,2.238-2.121,2.259-2.927
				c0-0.562-0.339-1.007-1.135-1.007c-0.594,0-1.113,0.297-1.474,0.572l-0.456-1.156c0.52-0.393,1.325-0.71,2.259-0.71
				c1.559,0,2.418,0.912,2.418,2.164c0,1.156-0.838,2.078-1.835,2.969l-0.636,0.53v0.021h2.598v1.326H484.645z"/>
			<path id="XMLID_423_" class="st1" d="M490.424,21.839c0-0.827,0.478-1.4,1.23-1.729v-0.032c-0.668-0.339-0.997-0.901-0.997-1.506
				c0-1.167,1.05-1.94,2.429-1.94c1.612,0,2.28,0.933,2.28,1.771c0,0.594-0.318,1.177-0.997,1.517v0.032
				c0.668,0.254,1.262,0.827,1.262,1.718c0,1.251-1.05,2.089-2.65,2.089C491.23,23.758,490.424,22.772,490.424,21.839z
				 M493.987,21.786c0-0.604-0.445-0.965-1.081-1.135c-0.53,0.148-0.838,0.53-0.838,1.029c-0.011,0.499,0.371,0.965,0.976,0.965
				C493.616,22.644,493.987,22.273,493.987,21.786z M492.174,18.519c0,0.466,0.425,0.764,0.976,0.933
				c0.371-0.106,0.7-0.445,0.7-0.88c0-0.424-0.244-0.848-0.838-0.848C492.461,17.724,492.174,18.084,492.174,18.519z"/>
			<path id="XMLID_427_" class="st1" d="M496.343,24.872c0.583-0.976,1.071-2.407,1.071-4.284s-0.478-3.288-1.071-4.274h1.124
				c0.562,0.817,1.209,2.206,1.209,4.274c-0.011,2.068-0.646,3.457-1.209,4.284H496.343z"/>
		</g>
		<rect id="XMLID_24_" x="301.809" y="16.116" class="st1" width="8.842" height="7.53"/>
	</g>
</g>
<g id="numeroGris">
	<g id="XMLID_62_">
		<g id="XMLID_321_">
			<path id="XMLID_322_" class="st1" d="M222.307,136.854v-3.288h-6.108v-2.1l5.217-8.399h3.945v8.081h1.654v2.418h-1.654v3.288
				H222.307z M222.307,131.149v-3.054c0-0.827,0.042-1.675,0.105-2.566h-0.085c-0.445,0.891-0.806,1.697-1.272,2.566l-1.845,3.012
				v0.042H222.307z"/>
			<path id="XMLID_325_" class="st1" d="M237.388,125.719h-5.345l-0.297,2.121c0.297-0.042,0.552-0.042,0.891-0.042
				c1.315,0,2.651,0.297,3.627,0.997c1.039,0.7,1.676,1.845,1.676,3.457c0,2.566-2.206,4.836-5.918,4.836
				c-1.676,0-3.075-0.382-3.839-0.785l0.573-2.418c0.614,0.297,1.866,0.679,3.117,0.679c1.337,0,2.758-0.636,2.758-2.1
				c0-1.421-1.124-2.291-3.882-2.291c-0.764,0-1.294,0.042-1.866,0.127l0.912-7.232h7.593V125.719z"/>
		</g>
		<g id="XMLID_314_">
			<path id="XMLID_315_" class="st1" d="M245.672,125.346c0,1.803-1.141,2.745-2.387,2.745c-1.312,0-2.347-0.981-2.347-2.599
				c0-1.539,0.941-2.705,2.413-2.705C244.837,122.787,245.672,123.874,245.672,125.346z M242.437,125.439
				c0,0.902,0.305,1.551,0.889,1.551c0.57,0,0.849-0.583,0.849-1.551c0-0.875-0.239-1.551-0.862-1.551
				C242.715,123.888,242.437,124.577,242.437,125.439z M243.392,131.698l4.945-8.911h1.088l-4.96,8.911H243.392z M251.878,128.926
				c0,1.803-1.141,2.745-2.388,2.745c-1.299,0-2.333-0.981-2.347-2.599c0-1.538,0.941-2.705,2.413-2.705
				C251.042,126.367,251.878,127.455,251.878,128.926z M248.655,129.019c-0.013,0.902,0.292,1.551,0.875,1.551
				c0.57,0,0.849-0.583,0.849-1.551c0-0.875-0.226-1.551-0.849-1.551C248.921,127.468,248.655,128.157,248.655,129.019z"/>
		</g>
	</g>
	<g id="XMLID_22_">
		<g id="XMLID_308_">
			<path id="XMLID_309_" class="st1" d="M272.874,233.392h-5.345l-0.297,2.121c0.297-0.042,0.552-0.042,0.891-0.042
				c1.315,0,2.651,0.297,3.627,0.997c1.039,0.7,1.676,1.845,1.676,3.457c0,2.566-2.206,4.836-5.918,4.836
				c-1.676,0-3.075-0.382-3.839-0.785l0.573-2.418c0.614,0.297,1.866,0.679,3.117,0.679c1.337,0,2.758-0.636,2.758-2.1
				c0-1.421-1.124-2.291-3.882-2.291c-0.764,0-1.294,0.042-1.866,0.127l0.912-7.232h7.593V233.392z"/>
			<path id="XMLID_311_" class="st1" d="M280.957,244.527v-3.288h-6.108v-2.1l5.217-8.399h3.945v8.081h1.654v2.418h-1.654v3.288
				H280.957z M280.957,238.822v-3.054c0-0.827,0.042-1.675,0.105-2.566h-0.085c-0.445,0.891-0.806,1.697-1.272,2.566l-1.845,3.012
				v0.042H280.957z"/>
		</g>
		<g id="XMLID_301_">
			<path id="XMLID_302_" class="st1" d="M291.719,233.019c0,1.803-1.141,2.745-2.387,2.745c-1.312,0-2.347-0.981-2.347-2.599
				c0-1.539,0.941-2.705,2.413-2.705C290.884,230.46,291.719,231.547,291.719,233.019z M288.483,233.112
				c0,0.902,0.305,1.551,0.889,1.551c0.57,0,0.849-0.583,0.849-1.551c0-0.875-0.239-1.551-0.862-1.551
				C288.762,231.56,288.483,232.25,288.483,233.112z M289.438,239.371l4.945-8.911h1.088l-4.96,8.911H289.438z M297.925,236.599
				c0,1.803-1.141,2.745-2.388,2.745c-1.299,0-2.333-0.981-2.347-2.599c0-1.538,0.941-2.705,2.413-2.705
				C297.089,234.04,297.925,235.127,297.925,236.599z M294.702,236.692c-0.013,0.902,0.292,1.551,0.875,1.551
				c0.57,0,0.849-0.583,0.849-1.551c0-0.875-0.226-1.551-0.849-1.551C294.968,235.141,294.702,235.83,294.702,236.692z"/>
		</g>
	</g>
</g>
<g id="numeroNaranja">
	<g id="XMLID_2_">
		<g id="XMLID_351_">
			<path id="XMLID_352_" class="st0" d="M350.204,79.98v2.036l-5.685,11.75h-3.414l5.684-11.093v-0.042h-6.32V79.98H350.204z"/>
		</g>
		<g id="XMLID_347_">
			<path id="XMLID_348_" class="st0" d="M361.318,86.81c0,4.263-1.718,7.19-5.238,7.19c-3.563,0-5.133-3.203-5.154-7.105
				c0-3.987,1.697-7.147,5.26-7.147C359.876,79.747,361.318,83.035,361.318,86.81z M354.171,86.894
				c-0.021,3.16,0.742,4.666,1.994,4.666c1.251,0,1.93-1.569,1.93-4.708c0-3.054-0.657-4.666-1.951-4.666
				C354.956,82.186,354.149,83.692,354.171,86.894z"/>
		</g>
		<g id="XMLID_340_">
			<path id="XMLID_341_" class="st0" d="M367.607,82.258c0,1.803-1.141,2.745-2.387,2.745c-1.312,0-2.347-0.981-2.347-2.599
				c0-1.539,0.941-2.705,2.413-2.705C366.772,79.699,367.607,80.786,367.607,82.258z M364.372,82.351
				c0,0.902,0.305,1.551,0.889,1.551c0.57,0,0.849-0.583,0.849-1.551c0-0.875-0.239-1.551-0.862-1.551
				C364.65,80.799,364.372,81.489,364.372,82.351z M365.327,88.609l4.945-8.911h1.088l-4.96,8.911H365.327z M373.813,85.838
				c0,1.803-1.141,2.745-2.388,2.745c-1.299,0-2.333-0.981-2.347-2.599c0-1.538,0.941-2.705,2.413-2.705
				C372.978,83.279,373.813,84.366,373.813,85.838z M370.591,85.931c-0.013,0.902,0.292,1.551,0.875,1.551
				c0.57,0,0.849-0.583,0.849-1.551c0-0.875-0.226-1.551-0.849-1.551C370.856,84.379,370.591,85.069,370.591,85.931z"/>
		</g>
	</g>
	<g id="XMLID_89_">
		<g id="XMLID_334_">
			<path id="XMLID_335_" class="st0" d="M371.273,188.969v2.036l-5.684,11.75h-3.415l5.684-11.093v-0.042h-6.32v-2.651H371.273z"/>
			<path id="XMLID_337_" class="st0" d="M381.773,191.259c-0.36-0.021-0.742,0-1.251,0.042c-2.863,0.233-4.136,1.697-4.496,3.309
				h0.063c0.679-0.7,1.633-1.103,2.927-1.103c2.312,0,4.263,1.633,4.263,4.497c0,2.736-2.1,4.984-5.09,4.984
				c-3.669,0-5.472-2.736-5.472-6.023c0-2.588,0.954-4.751,2.438-6.13c1.379-1.251,3.16-1.93,5.324-2.036
				c0.594-0.042,0.976-0.042,1.293-0.021V191.259z M380.014,198.174c0-1.273-0.679-2.376-2.058-2.376
				c-0.869,0-1.591,0.53-1.909,1.23c-0.084,0.169-0.127,0.424-0.127,0.806c0.063,1.464,0.764,2.779,2.228,2.779
				C379.292,200.613,380.014,199.573,380.014,198.174z"/>
		</g>
		<g id="XMLID_327_">
			<path id="XMLID_328_" class="st0" d="M389.438,191.246c0,1.803-1.141,2.745-2.387,2.745c-1.312,0-2.347-0.981-2.347-2.599
				c0-1.539,0.941-2.705,2.413-2.705C388.604,188.686,389.438,189.774,389.438,191.246z M386.203,191.338
				c0,0.902,0.305,1.551,0.889,1.551c0.57,0,0.849-0.583,0.849-1.551c0-0.875-0.239-1.551-0.862-1.551
				C386.481,189.787,386.203,190.477,386.203,191.338z M387.158,197.597l4.945-8.911h1.088l-4.96,8.911H387.158z M395.645,194.826
				c0,1.803-1.141,2.745-2.387,2.745c-1.3,0-2.334-0.981-2.348-2.599c0-1.538,0.941-2.705,2.413-2.705
				C394.809,192.267,395.645,193.354,395.645,194.826z M392.422,194.918c-0.014,0.902,0.292,1.551,0.875,1.551
				c0.57,0,0.849-0.583,0.849-1.551c0-0.875-0.226-1.551-0.849-1.551C392.688,193.367,392.422,194.057,392.422,194.918z"/>
		</g>
	</g>
</g>
<g id="lineaGris">
	<line id="XMLID_3_" class="lineaGris" x1="0" y1="129.741" x2="210" y2="129.741"/>
	<line id="XMLID_5_" class="lineaGris" x1="0" y1="237.741" x2="258" y2="237.741"/>
</g>
<g id="lineaNaranja">
	<line id="XMLID_1_" class="lineaNaranja" x1="0" y1="87.741" x2="334" y2="87.741"/>
	<line id="XMLID_6_" class="lineaNaranja" x1="0" y1="194.741" x2="358" y2="194.741"/>
</g>
</svg>
