<?xml version="1.0" encoding="utf-8"?>
<svg version="1.1" id="Layer_1" xmlns="http://www.w3.org/2000/svg" xmlns:xlink="http://www.w3.org/1999/xlink" x="0px" y="0px"
	 width="385.561px" height="197.548px" viewBox="0 0 385.561 197.548" style="enable-background:new 0 0 385.561 197.548;"
	 xml:space="preserve">
<style type="text/css">
	.lineaRoja{
		fill:none;
		stroke:#BF2A2D;
		stroke-width:2.5;
		stroke-linecap:round;
		stroke-miterlimit:10;
	}

	.lineaRoja{
		stroke-dasharray:1000;
		stroke-dashoffset:0;
		-webkit-animation: lineaRoja 5s ease-in-out forwards;
		-moz-animation: lineaRoja 5s ease-in-out forwards;
		-o-animation: lineaRoja 5s ease-in-out forwards;
		nimation: lineaRoja 5s ease-in-out forwards;
	}

	@-webkit-keyframes lineaRoja{
		from{
			stroke-dashoffset: 1000;
		}

		to{
			stroke-dashoffset: 0;
		}
	}
</style>
<polyline class="lineaRoja" points="1.25,1.25 3.131,1.25 3.131,1.985 4.007,1.985 4.007,2.749 6.699,2.749 6.699,3.512 
	7.607,3.512 7.607,5.039 8.353,5.039 8.353,5.916 10.137,5.916 10.137,8.178 12.764,8.178 12.764,9.761 13.77,9.761 13.77,12.023 
	14.646,12.023 14.646,12.815 15.489,12.815 15.489,13.494 17.208,13.494 17.208,18.159 18.116,18.159 18.116,18.894 19.089,18.894 
	19.089,24.38 20.841,24.38 20.841,26.755 21.717,26.755 21.717,28.989 22.56,28.989 22.56,32.127 23.533,32.127 23.533,32.891 
	25.349,32.891 25.349,35.21 26.193,35.21 26.193,37.613 26.939,37.613 26.939,39.988 27.912,39.988 27.912,43.014 28.755,43.014 
	28.755,43.777 29.728,43.777 29.728,45.304 30.669,45.304 30.669,49.093 31.35,49.093 31.35,51.553 33.361,51.553 33.361,53.108 
	34.107,53.108 34.107,54.55 34.983,54.55 34.983,55.342 35.858,55.342 35.858,56.106 36.734,56.106 36.734,59.244 37.74,59.244 
	37.74,63.061 38.518,63.061 38.518,65.408 39.297,65.408 39.297,66.172 42.151,66.172 42.151,68.547 45.784,68.547 45.784,70.13 
	46.659,70.13 46.659,70.837 47.405,70.837 47.405,71.544 48.314,71.544 48.314,73.976 49.254,73.976 49.254,77.115 50.162,77.115 
	50.162,78.642 50.908,78.642 50.908,80.988 51.946,80.988 51.946,82.431 52.725,82.431 52.725,85.541 54.639,85.541 54.639,86.361 
	57.298,86.361 57.298,90.122 57.979,90.122 57.979,92.582 60.023,92.582 60.023,93.317 61.645,93.317 61.645,94.759 62.488,94.759 
	62.488,96.427 63.461,96.427 63.461,97.926 66.185,97.926 66.185,99.368 68.715,99.368 68.715,101.064 70.597,101.064 70.597,101.8 
	71.472,101.8 71.472,103.383 73.127,103.383 73.127,104.231 75.949,104.231 75.949,105.645 77.635,105.645 77.635,106.55 
	80.392,106.55 80.392,107.936 82.922,107.936 82.922,109.547 84.706,109.547 84.706,110.254 87.398,110.254 87.398,111.894 
	91.907,111.894 91.907,114.948 96.448,114.948 96.448,117.267 97.421,117.267 97.421,118.907 99.821,118.907 99.821,120.434 
	105.075,120.434 105.075,121.847 106.924,121.847 106.924,123.374 108.708,123.374 108.708,124.986 109.779,124.986 
	109.779,126.683 111.238,126.683 111.238,127.983 113.152,127.983 113.152,128.945 118.471,128.945 118.471,131.263 
	120.255,131.263 120.255,132.705 122.007,132.705 122.007,134.317 123.791,134.317 123.791,135.872 124.764,135.872 
	124.764,139.068 131.672,139.068 131.672,140.594 137.154,140.594 137.154,142.008 138.97,142.008 138.97,143.479 140.722,143.479 
	140.722,145.175 144.192,145.175 144.192,148.172 150.355,148.172 150.355,149.558 152.269,149.558 152.269,151.679 
	154.053,151.679 154.053,153.347 162.551,153.347 162.551,155.892 163.816,155.892 163.816,158.352 165.567,158.352 
	165.567,159.766 175.233,159.766 175.233,161.349 178.801,161.349 178.801,162.763 179.969,162.763 179.969,165.308 
	183.439,165.308 183.439,166.835 194.921,166.835 194.921,169.238 208.966,169.238 208.966,170.567 224.145,170.567 
	224.145,172.942 233.876,172.942 233.876,174.469 243.671,174.469 243.671,177.099 248.991,177.099 248.991,180.237 257.91,180.237 
	257.91,182.302 284.345,182.302 284.345,186.175 302.25,186.175 302.25,190.615 311.072,190.615 311.072,196.298 384.311,196.298 
	"/>
</svg>
